<svg width="64" height="64" viewBox="0 0 64 64" fill="none" xmlns="http://www.w3.org/2000/svg">
<g clip-path="url(#clip0_5_70)">
<rect width="64" height="64" rx="15" fill="#D9D9D9"/>
<g filter="url(#filter0_d_5_70)">
<path fill-rule="evenodd" clip-rule="evenodd" d="M26.6656 9.03739C26.2001 9.06529 25.7064 9.11565 25.5684 9.1493C24.2415 9.47326 23.3192 9.82387 22.4355 10.3402C21.7349 10.7495 20.6849 11.5899 20.2094 12.1217C20.0534 12.2961 19.8836 12.4849 19.8318 12.5411C19.4842 12.9192 19.0599 13.5784 18.6868 14.3198C18.3534 14.9826 18.1871 15.4409 18.0037 16.2022C17.8767 16.7296 17.8672 16.9717 17.8258 20.7315C17.7781 25.0663 17.7708 25.1554 17.3979 25.9504C17.1642 26.4488 16.6107 27.0406 16.1511 27.2837C15.9513 27.3894 15.4353 27.5646 15.0043 27.6731C14.5732 27.7817 14.1642 27.8937 14.0952 27.9222C14.0262 27.9506 13.7201 28.0665 13.4149 28.1798C12.4371 28.5426 11.3328 29.3761 10.5601 30.3345C9.78057 31.3013 9.44088 32.1436 9.09738 33.9614C9.06484 34.1334 9.02415 36.1461 9.00691 38.434C8.97424 42.766 9.0617 47.8091 9.17888 48.3486C9.39073 49.3242 9.51718 49.7735 9.71512 50.2533C10.0362 51.032 10.3078 51.4896 10.8196 52.1147C11.6953 53.1842 12.8069 54.0313 14.0078 54.5441C14.6927 54.8368 15.676 55.1204 16.2795 55.1995C16.6314 55.2456 19.7359 55.2596 26.2267 55.2438C36.5438 55.2189 35.6659 55.2505 36.8473 54.8576C38.0599 54.4543 39.0378 53.86 39.8926 53.0071C40.5499 52.3513 41.0634 51.6025 41.4378 50.7537C41.7586 50.0265 41.9281 49.4371 42.0308 48.6926C42.1147 48.0848 42.2032 43.5981 42.1425 43.0316C42.0798 42.4461 42.0856 38.3681 42.1505 37.4835C42.1826 37.0468 42.2546 36.512 42.3106 36.295C42.5485 35.3731 43.1571 34.3995 43.9216 33.7184C44.3743 33.3149 45.171 32.891 45.7576 32.7413C46.3144 32.5993 46.4746 32.5904 46.8097 32.6833C47.0957 32.7625 47.259 32.999 47.3587 33.4787C47.4484 33.9096 47.3448 35.0922 47.1601 35.7442C46.8285 36.9154 46.0003 38.0853 45.152 38.5806C44.9689 38.6876 44.6333 38.7935 44.2461 38.8667C43.7744 38.9558 43.6047 39.0153 43.5181 39.1219C43.4156 39.2483 43.4053 39.4173 43.4053 40.9666C43.4053 42.9177 43.3873 42.8537 43.9286 42.8302C44.9731 42.7849 46.4032 42.222 47.4279 41.4529C48.1264 40.9288 48.6932 40.3643 49.2378 39.6503C49.8174 38.8905 50.2367 38.1395 50.4973 37.3943C50.838 36.4202 50.9322 35.8344 50.9688 34.4618C51.0083 32.9798 51.0463 32.8431 51.448 32.7402C52.6322 32.4365 53.1795 32.1701 53.7343 31.6274C54.0391 31.3292 54.1969 31.1068 54.378 30.7203C54.6919 30.0507 54.8487 29.4156 55.0009 28.2002C55.2222 26.43 55.3233 21.1484 55.1906 18.2829C55.1237 16.836 54.9909 16.0376 54.6535 15.0575C53.943 12.9925 52.2499 11.0768 50.2433 10.0675C49.5048 9.69607 48.1471 9.2811 47.0416 9.08887C46.7529 9.03871 43.8458 9.0135 37.073 9.00236C31.8145 8.99373 27.1311 9.00949 26.6656 9.03739ZM40.2078 13.5886C40.363 13.6269 40.9474 13.7031 41.5066 13.7578C42.7076 13.8754 44.0303 14.1374 44.8159 14.4134C46.1924 14.8971 47.591 15.8616 48.4228 16.9007C49.1339 17.789 49.5587 18.5473 49.9245 19.5812C50.3046 20.6557 50.3096 20.7304 50.3718 26.2987C50.4032 29.1027 50.4122 31.5716 50.3919 31.7853C50.3679 32.0377 50.3102 32.2306 50.227 32.3361L50.099 32.4984L48.8227 32.4793C47.5909 32.4608 47.5414 32.4552 47.4037 32.3177L47.261 32.1753L47.2233 27.0633C47.1985 23.71 47.1622 21.8652 47.1177 21.7011C47.0804 21.5634 47.019 21.3284 46.9813 21.1789C46.9024 20.8655 46.522 20.0035 46.301 19.6368C46.0939 19.2934 45.3283 18.5226 44.9081 18.2347C44.5599 17.996 43.9038 17.6683 43.4366 17.4998C42.7019 17.2347 42.5596 17.2285 37.1473 17.2291C34.1892 17.2294 31.6573 17.2566 31.2506 17.2925C30.8078 17.3317 30.3616 17.4146 30.0721 17.5115C29.6229 17.662 28.9845 17.9787 28.564 18.2598C28.1979 18.5046 27.6622 19.0052 27.3515 19.393C26.9762 19.8615 26.4626 20.9042 26.2762 21.576C26.1394 22.0685 26.1367 22.1567 26.1036 27.1566C26.0721 31.9238 26.0631 32.2437 25.9581 32.3485C25.8572 32.4492 25.7045 32.4602 24.4009 32.4602C22.975 32.4602 22.954 32.4583 22.8405 32.3185C22.7719 32.234 22.709 32.0197 22.6844 31.7868C22.6618 31.5723 22.6554 29.0886 22.6703 26.2674C22.6889 22.754 22.7209 20.9832 22.7719 20.6463C22.9294 19.6068 23.5797 18.1185 24.2519 17.2592C25.1157 16.1547 26.1132 15.3541 27.4037 14.7295C28.206 14.3411 29.2574 14.0184 30.2393 13.859C30.84 13.7616 32.716 13.5431 33.1859 13.516C33.4101 13.503 35.0182 13.4983 36.7595 13.5057C38.8317 13.5143 40.0232 13.5429 40.2078 13.5886ZM21.9814 32.7591C22.3596 32.9235 22.4108 33.1225 22.4672 34.6495C22.5178 36.0218 22.5932 36.4908 22.94 37.5895C23.1797 38.3495 23.6843 39.3171 24.1229 39.858C24.611 40.4602 25.2678 41.0809 25.8641 41.5039C26.5329 41.9782 27.5825 42.463 28.4524 42.6993L29.2048 42.9037L33.0795 42.9238C36.6605 42.9425 36.9694 42.9524 37.1547 43.0557L37.3552 43.1674L37.3719 44.8344C37.3811 45.7512 37.3623 46.6495 37.3302 46.8307C37.1735 47.7148 36.828 48.4999 36.3392 49.0821C35.9942 49.4931 35.4599 49.9212 34.9129 50.2248C34.7044 50.3405 34.2941 50.5005 34.001 50.5804L33.4681 50.7256H25.9132H18.3585L17.8375 50.577C17.2018 50.3956 16.3917 49.9909 15.8835 49.6008C15.6751 49.4407 15.3506 49.1173 15.1624 48.882C14.5306 48.0919 14.2284 47.3206 14.1225 46.2279C14.0792 45.7803 14.0637 44.0004 14.0791 41.2176C14.1022 37.0286 14.1069 36.8862 14.239 36.3863C14.3709 35.8864 14.7681 35.0101 14.9894 34.7303C15.2959 34.3428 15.9447 33.7132 16.2368 33.5198C16.6403 33.2525 17.3139 32.9614 17.8402 32.8267C18.4701 32.6656 19.0255 32.6259 20.4274 32.6413C21.4895 32.6531 21.7899 32.6758 21.9814 32.7591ZM33.3113 32.7411C34.6062 32.8893 35.5621 33.2999 36.2954 34.0231C36.7161 34.4378 36.8797 34.7009 37.2687 35.5878C37.3806 35.843 37.4468 36.6194 37.448 37.692C37.4495 39.0215 37.444 39.0341 36.8222 39.1235C36.2552 39.205 32.3989 39.1994 31.4726 39.1157C31.0528 39.0777 30.4506 38.9799 30.1343 38.8981C28.9695 38.5973 27.7915 37.7473 27.2582 36.8228C27.1641 36.6596 27.0504 36.4836 27.0055 36.4315C26.9607 36.3795 26.8319 36.0699 26.7195 35.7434C26.5261 35.1825 26.5136 35.0915 26.4903 34.0859C26.4669 33.0756 26.4722 33.0161 26.5944 32.9057C26.6652 32.8417 26.816 32.7675 26.9295 32.7407C27.2318 32.6692 32.6863 32.6696 33.3113 32.7411ZM43.2172 42.8998C43.2172 42.9133 43.2595 42.9406 43.3112 42.9604C43.3629 42.9802 43.4053 42.9691 43.4053 42.9358C43.4053 42.9025 43.3629 42.8752 43.3112 42.8752C43.2595 42.8752 43.2172 42.8863 43.2172 42.8998Z" fill="#1CA2E4"/>
</g>
</g>
<defs>
<filter id="filter0_d_5_70" x="-17.5" y="-13.5" width="99.25" height="99.25" filterUnits="userSpaceOnUse" color-interpolation-filters="sRGB">
<feFlood flood-opacity="0" result="BackgroundImageFix"/>
<feColorMatrix in="SourceAlpha" type="matrix" values="0 0 0 0 0 0 0 0 0 0 0 0 0 0 0 0 0 0 127 0" result="hardAlpha"/>
<feOffset dy="4"/>
<feGaussianBlur stdDeviation="13.25"/>
<feComposite in2="hardAlpha" operator="out"/>
<feColorMatrix type="matrix" values="0 0 0 0 0 0 0 0 0 0 0 0 0 0 0 0 0 0 0.15 0"/>
<feBlend mode="normal" in2="BackgroundImageFix" result="effect1_dropShadow_5_70"/>
<feBlend mode="normal" in="BackgroundImageFix" in2="effect1_dropShadow_5_70" result="BackgroundImageFix"/>
<feBlend mode="normal" in="SourceGraphic" in2="BackgroundImageFix" result="shape"/>
</filter>
<clipPath id="clip0_5_70">
<rect width="64" height="64" fill="white"/>
</clipPath>
</defs>
</svg>
