<svg width="1024" height="1024" viewBox="0 0 1024 1024" fill="none" xmlns="http://www.w3.org/2000/svg">
<g clip-path="url(#clip0_5_102)">
<rect width="1024" height="1024" rx="230" fill="#1A1F26"/>
<g filter="url(#filter0_d_5_102)">
<path fill-rule="evenodd" clip-rule="evenodd" d="M422.65 140.598C415.202 141.045 407.302 141.85 405.095 142.389C383.864 147.572 369.107 153.182 354.967 161.444C343.759 167.992 326.958 181.438 319.351 189.947C316.855 192.738 314.137 195.758 313.309 196.658C307.748 202.707 300.959 213.254 294.989 225.117C289.655 235.722 286.993 243.055 284.06 255.235C282.028 263.674 281.875 267.548 281.213 327.704C280.45 397.061 280.332 398.486 274.366 411.207C270.626 419.181 261.772 428.65 254.418 432.54C251.222 434.23 242.965 437.033 236.069 438.77C229.172 440.508 222.627 442.3 221.523 442.755C220.42 443.21 215.521 445.064 210.638 446.876C194.994 452.682 177.324 466.018 164.961 481.352C152.489 496.82 147.054 510.298 141.558 539.383C141.037 542.135 140.386 574.337 140.111 610.944C139.588 680.257 140.987 760.946 142.862 769.577C146.252 785.187 148.275 792.375 151.442 800.052C156.58 812.511 160.925 819.834 169.113 829.835C183.125 846.948 200.911 860.501 220.126 868.706C231.084 873.389 246.816 877.927 256.472 879.192C262.103 879.929 311.775 880.153 415.628 879.9C580.701 879.503 566.654 880.008 585.556 873.721C604.959 867.268 620.604 857.759 634.282 844.113C644.799 833.62 653.014 821.639 659.004 808.059C664.137 796.424 666.85 786.993 668.494 775.081C669.836 765.357 671.251 693.57 670.28 684.505C669.276 675.137 669.37 609.889 670.409 595.737C670.921 588.749 672.074 580.192 672.969 576.721C676.775 561.969 686.514 546.391 698.745 535.495C705.989 529.039 718.736 522.256 728.122 519.861C737.031 517.589 739.593 517.446 744.956 518.933C749.531 520.199 752.144 523.984 753.739 531.659C755.175 538.554 753.517 557.475 750.562 567.907C745.257 586.647 732.004 605.365 718.432 613.29C715.503 615.001 710.133 616.696 703.937 617.867C696.39 619.292 693.675 620.244 692.29 621.95C690.65 623.972 690.484 626.677 690.484 651.465C690.484 682.684 690.196 681.659 698.858 681.283C715.57 680.558 738.451 671.551 754.847 659.247C766.023 650.86 775.091 641.829 783.805 630.405C793.079 618.247 799.788 606.233 803.958 594.308C809.408 578.724 810.915 569.351 811.501 547.389C812.132 523.677 812.741 521.489 819.168 519.842C838.115 514.983 846.873 510.722 855.749 502.038C860.626 497.267 863.151 493.709 866.048 487.525C871.071 476.812 873.578 466.65 876.014 447.203C879.555 418.88 881.174 334.375 879.049 288.527C877.979 265.377 875.855 252.602 870.457 236.92C859.088 203.88 831.999 173.229 799.893 157.08C788.077 151.137 766.354 144.498 748.665 141.422C744.047 140.619 697.532 140.216 589.169 140.038C505.032 139.9 430.098 140.152 422.65 140.598ZM639.325 213.418C641.808 214.03 651.158 215.25 660.105 216.125C679.321 218.006 700.484 222.198 713.055 226.615C735.078 234.354 757.456 249.785 770.765 266.412C782.143 280.623 788.94 292.757 794.792 309.298C800.874 326.492 800.953 327.686 801.949 416.779C802.451 461.643 802.595 501.146 802.271 504.565C801.887 508.603 800.963 511.69 799.632 513.378L797.584 515.975L777.163 515.669C757.454 515.374 756.662 515.283 754.46 513.083L752.177 510.805L751.573 429.012C751.177 375.36 750.596 345.843 749.883 343.217C749.286 341.015 748.304 337.255 747.701 334.862C746.439 329.848 740.353 316.057 736.816 310.189C733.503 304.695 721.252 292.362 714.53 287.755C708.959 283.936 698.46 278.693 690.986 275.997C679.23 271.755 676.953 271.657 590.358 271.666C543.027 271.67 502.518 272.106 496.01 272.681C488.925 273.306 481.785 274.633 477.154 276.185C469.966 278.592 459.751 283.66 453.024 288.157C447.166 292.073 438.595 300.084 433.624 306.288C427.619 313.785 419.401 330.466 416.419 341.215C414.23 349.097 414.188 350.506 413.658 430.506C413.154 506.78 413.01 511.9 411.33 513.576C409.714 515.187 407.273 515.363 386.414 515.363C363.6 515.363 363.265 515.332 361.449 513.096C360.351 511.744 359.344 508.315 358.951 504.589C358.588 501.157 358.487 461.417 358.724 416.279C359.023 360.064 359.534 331.73 360.351 326.34C362.87 309.709 373.276 285.896 384.03 272.147C397.851 254.475 413.81 241.666 434.46 231.671C447.296 225.458 464.118 220.294 479.828 217.744C489.44 216.185 519.457 212.69 526.975 212.256C530.561 212.049 556.291 211.974 584.153 212.091C617.307 212.229 636.371 212.687 639.325 213.418ZM347.702 520.145C353.754 522.776 354.573 525.961 355.475 550.392C356.285 572.349 357.491 579.853 363.039 597.432C366.876 609.592 374.949 625.073 381.966 633.728C389.776 643.363 400.284 653.295 409.825 660.062C420.526 667.651 437.319 675.407 451.239 679.189L463.276 682.458L525.271 682.781C582.567 683.079 587.51 683.238 590.475 684.891L593.682 686.678L593.95 713.35C594.097 728.019 593.797 742.392 593.284 745.291C590.777 759.437 585.248 771.998 577.428 781.313C571.907 787.89 563.359 794.738 554.606 799.596C551.27 801.448 544.705 804.008 540.016 805.286L531.489 807.609H410.612H289.736L281.401 805.232C271.228 802.33 258.267 795.855 250.136 789.613C246.801 787.052 241.609 781.877 238.598 778.112C228.49 765.471 223.655 753.13 221.96 735.647C221.267 728.485 221.019 700.007 221.265 655.481C221.634 588.458 221.71 586.18 223.823 578.18C225.935 570.183 232.29 556.162 235.831 551.684C240.734 545.485 251.115 535.411 255.788 532.316C262.245 528.04 273.023 523.382 281.444 521.228C291.521 518.65 300.408 518.014 322.839 518.261C339.833 518.449 344.639 518.813 347.702 520.145ZM528.981 519.858C549.7 522.229 564.994 528.798 576.727 540.37C583.457 547.005 586.075 551.214 592.299 565.405C594.09 569.488 595.148 581.911 595.168 599.072C595.191 620.344 595.103 620.546 585.156 621.976C576.084 623.279 514.383 623.19 499.561 621.851C492.846 621.243 483.21 619.678 478.149 618.37C459.511 613.557 440.664 599.957 432.131 585.164C430.626 582.553 428.806 579.737 428.089 578.904C427.371 578.073 425.311 573.118 423.511 567.895C420.418 558.92 420.218 557.464 419.845 541.375C419.471 525.21 419.555 524.257 421.511 522.492C422.644 521.468 425.056 520.28 426.872 519.85C431.709 518.707 518.981 518.714 528.981 519.858ZM687.475 682.396C687.475 682.612 688.152 683.049 688.979 683.366C689.807 683.683 690.484 683.506 690.484 682.973C690.484 682.44 689.807 682.003 688.979 682.003C688.152 682.003 687.475 682.18 687.475 682.396Z" fill="#1CA2E4"/>
</g>
</g>
<defs>
<filter id="filter0_d_5_102" x="113.5" y="117.5" width="793" height="793" filterUnits="userSpaceOnUse" color-interpolation-filters="sRGB">
<feFlood flood-opacity="0" result="BackgroundImageFix"/>
<feColorMatrix in="SourceAlpha" type="matrix" values="0 0 0 0 0 0 0 0 0 0 0 0 0 0 0 0 0 0 127 0" result="hardAlpha"/>
<feOffset dy="4"/>
<feGaussianBlur stdDeviation="13.25"/>
<feComposite in2="hardAlpha" operator="out"/>
<feColorMatrix type="matrix" values="0 0 0 0 0 0 0 0 0 0 0 0 0 0 0 0 0 0 0.25 0"/>
<feBlend mode="normal" in2="BackgroundImageFix" result="effect1_dropShadow_5_102"/>
<feBlend mode="normal" in="BackgroundImageFix" in2="effect1_dropShadow_5_102" result="BackgroundImageFix"/>
<feBlend mode="normal" in="SourceGraphic" in2="BackgroundImageFix" result="shape"/>
</filter>
<clipPath id="clip0_5_102">
<rect width="1024" height="1024" fill="white"/>
</clipPath>
</defs>
</svg>
