<svg width="128" height="128" viewBox="0 0 128 128" fill="none" xmlns="http://www.w3.org/2000/svg">
<g clip-path="url(#clip0_5_93)">
<rect width="128" height="128" rx="29" fill="#1A1F26"/>
<g filter="url(#filter0_d_5_93)">
<path fill-rule="evenodd" clip-rule="evenodd" d="M53.3313 18.0748C52.4002 18.1306 51.4128 18.2313 51.1369 18.2986C48.483 18.9465 46.6383 19.6477 44.8709 20.6805C43.4698 21.4991 41.3698 23.1797 40.4189 24.2434C40.1069 24.5923 39.7671 24.9697 39.6636 25.0822C38.9685 25.8383 38.1198 27.1567 37.3737 28.6397C36.7068 29.9652 36.3741 30.8818 36.0075 32.4044C35.7535 33.4593 35.7344 33.9434 35.6517 41.4631C35.5562 50.1326 35.5416 50.3107 34.7958 51.9009C34.3283 52.8977 33.2215 54.0813 32.3022 54.5675C31.9027 54.7787 30.8706 55.1291 30.0086 55.3462C29.1465 55.5635 28.3283 55.7875 28.1904 55.8444C28.0525 55.9012 27.4402 56.133 26.8298 56.3596C24.8742 57.0853 22.6656 58.7523 21.1201 60.6689C19.5611 62.6025 18.8818 64.2872 18.1948 67.9229C18.1297 68.2669 18.0483 72.2922 18.0138 76.8679C17.9485 85.5321 18.1234 95.6182 18.3578 96.6971C18.7815 98.6484 19.0344 99.5469 19.4302 100.507C20.0725 102.064 20.6157 102.979 21.6391 104.229C23.3906 106.368 25.6139 108.063 28.0157 109.088C29.3855 109.674 31.352 110.241 32.5591 110.399C33.2628 110.491 39.4718 110.519 52.4535 110.488C73.0877 110.438 71.3318 110.501 73.6945 109.715C76.1199 108.909 78.0756 107.72 79.7853 106.014C81.0999 104.703 82.1268 103.205 82.8755 101.507C83.5172 100.053 83.8563 98.8741 84.0617 97.3852C84.2294 96.1697 84.4064 87.1963 84.285 86.0631C84.1595 84.8922 84.1713 76.7362 84.3011 74.9671C84.3651 74.0937 84.5092 73.024 84.6211 72.5901C85.0969 70.7461 86.3142 68.7989 87.8431 67.4368C88.7486 66.6299 90.3421 65.782 91.5153 65.4827C92.6288 65.1986 92.9491 65.1808 93.6195 65.3666C94.1914 65.5249 94.5179 65.998 94.7174 66.9573C94.8969 67.8193 94.6896 70.1844 94.3203 71.4884C93.6571 73.8309 92.0006 76.1707 90.304 77.1613C89.9378 77.3752 89.2666 77.587 88.4921 77.7334C87.5488 77.9115 87.2094 78.0305 87.0363 78.2438C86.8312 78.4965 86.8105 78.8346 86.8105 81.9331C86.8105 85.8355 86.7746 85.7074 87.8573 85.6604C89.9462 85.5697 92.8064 84.4439 94.8559 82.9058C96.2529 81.8575 97.3864 80.7286 98.4756 79.3007C99.6348 77.7809 100.473 76.2791 100.995 74.7885C101.676 72.8405 101.864 71.6689 101.938 68.9237C102.017 65.9596 102.093 65.6862 102.896 65.4803C105.264 64.8729 106.359 64.3402 107.469 63.2547C108.078 62.6583 108.394 62.2136 108.756 61.4407C109.384 60.1015 109.697 58.8312 110.002 56.4004C110.444 52.86 110.647 42.2968 110.381 36.5659C110.247 33.6721 109.982 32.0752 109.307 30.115C107.886 25.985 104.5 22.1536 100.487 20.135C99.0096 19.3921 96.2942 18.5622 94.0832 18.1777C93.5059 18.0774 87.6915 18.027 74.1461 18.0047C63.629 17.9875 54.2622 18.019 53.3313 18.0748ZM80.4156 27.1772C80.726 27.2538 81.8948 27.4062 83.0131 27.5156C85.4151 27.7507 88.0605 28.2747 89.6319 28.8269C92.3847 29.7942 95.182 31.7232 96.8456 33.8014C98.2678 35.5779 99.1175 37.0947 99.849 39.1623C100.609 41.3115 100.619 41.4608 100.744 52.5974C100.806 58.2053 100.824 63.1432 100.784 63.5706C100.736 64.0754 100.62 64.4613 100.454 64.6722L100.198 64.9969L97.6454 64.9586C95.1817 64.9217 95.0828 64.9104 94.8075 64.6354L94.5221 64.3506L94.4466 54.1265C94.3971 47.42 94.3244 43.7304 94.2354 43.4021C94.1608 43.1269 94.038 42.6569 93.9627 42.3578C93.8049 41.731 93.0441 40.0071 92.602 39.2737C92.1878 38.5869 90.6565 37.0453 89.8162 36.4694C89.1199 35.992 87.8075 35.3366 86.8732 34.9996C85.4038 34.4694 85.1191 34.4571 74.2947 34.4583C68.3784 34.4587 63.3147 34.5133 62.5013 34.5851C61.6156 34.6633 60.7231 34.8292 60.1442 35.0231C59.2458 35.324 57.9689 35.9575 57.128 36.5196C56.3958 37.0091 55.3243 38.0105 54.703 38.786C53.9524 39.7231 52.9251 41.8083 52.5523 43.1519C52.2788 44.1371 52.2735 44.3133 52.2072 54.3133C52.1442 63.8476 52.1262 64.4875 51.9162 64.697C51.7143 64.8984 51.4091 64.9203 48.8017 64.9203C45.95 64.9203 45.9081 64.9165 45.6811 64.6371C45.5439 64.468 45.418 64.0393 45.3688 63.5737C45.3236 63.1446 45.3108 58.1771 45.3405 52.5349C45.3778 45.508 45.4418 41.9663 45.5439 41.2925C45.8588 39.2136 47.1595 36.237 48.5037 34.5183C50.2313 32.3094 52.2263 30.7082 54.8075 29.4589C56.4119 28.6822 58.5147 28.0367 60.4785 27.718C61.68 27.5232 65.4321 27.0862 66.3718 27.032C66.8201 27.0061 70.0364 26.9967 73.5191 27.0113C77.6634 27.0286 80.0463 27.0859 80.4156 27.1772ZM43.9628 65.5182C44.7192 65.847 44.8216 66.2451 44.9343 69.299C45.0357 72.0437 45.1864 72.9816 45.8799 75.179C46.3595 76.699 47.3687 78.6341 48.2457 79.716C49.222 80.9203 50.5356 82.1619 51.7281 83.0077C53.0658 83.9564 55.1649 84.9259 56.9049 85.3986L58.4096 85.8073L66.1589 85.8476C73.3209 85.8849 73.9388 85.9048 74.3093 86.1114L74.7103 86.3348L74.7437 89.6687C74.7622 91.5024 74.7247 93.299 74.6604 93.6613C74.3471 95.4297 73.6559 96.9997 72.6785 98.1641C71.9883 98.9862 70.9199 99.8423 69.8258 100.45C69.4088 100.681 68.5881 101.001 68.002 101.161L66.9361 101.451H51.8265H36.717L35.6751 101.154C34.4035 100.791 32.7834 99.9819 31.767 99.2016C31.3501 98.8814 30.7012 98.2346 30.3248 97.764C29.0612 96.1839 28.4569 94.6413 28.245 92.4558C28.1584 91.5607 28.1274 88.0008 28.1581 82.4351C28.2043 74.0573 28.2137 73.7724 28.4779 72.7726C28.7419 71.7729 29.5363 70.0202 29.9789 69.4605C30.5918 68.6857 31.8893 67.4264 32.4735 67.0395C33.2806 66.505 34.6278 65.9228 35.6805 65.6535C36.9402 65.3313 38.051 65.2518 40.8548 65.2827C42.9791 65.3062 43.5799 65.3517 43.9628 65.5182ZM66.6227 65.4822C69.2125 65.7786 71.1242 66.5997 72.5908 68.0462C73.4321 68.8756 73.7594 69.4018 74.5374 71.1756C74.7613 71.686 74.8935 73.2388 74.8959 75.3841C74.8989 78.043 74.8879 78.0683 73.6445 78.247C72.5104 78.4099 64.7979 78.3987 62.9451 78.2313C62.1057 78.1554 60.9013 77.9597 60.2686 77.7963C57.9389 77.1946 55.583 75.4946 54.5164 73.6455C54.3283 73.3192 54.1007 72.9671 54.0111 72.863C53.9214 72.7591 53.6639 72.1398 53.4389 71.4869C53.0522 70.365 53.0272 70.183 52.9807 68.1718C52.9339 66.1512 52.9444 66.0321 53.1889 65.8115C53.3304 65.6835 53.6321 65.535 53.859 65.4813C54.4637 65.3384 65.3727 65.3392 66.6227 65.4822ZM86.4344 85.7995C86.4344 85.8265 86.519 85.8811 86.6224 85.9208C86.7259 85.9603 86.8105 85.9382 86.8105 85.8716C86.8105 85.805 86.7259 85.7504 86.6224 85.7504C86.519 85.7504 86.4344 85.7725 86.4344 85.7995Z" fill="#1CA2E4"/>
</g>
</g>
<defs>
<filter id="filter0_d_5_93" x="-8.5" y="-4.5" width="145.5" height="145.5" filterUnits="userSpaceOnUse" color-interpolation-filters="sRGB">
<feFlood flood-opacity="0" result="BackgroundImageFix"/>
<feColorMatrix in="SourceAlpha" type="matrix" values="0 0 0 0 0 0 0 0 0 0 0 0 0 0 0 0 0 0 127 0" result="hardAlpha"/>
<feOffset dy="4"/>
<feGaussianBlur stdDeviation="13.25"/>
<feComposite in2="hardAlpha" operator="out"/>
<feColorMatrix type="matrix" values="0 0 0 0 0 0 0 0 0 0 0 0 0 0 0 0 0 0 0.25 0"/>
<feBlend mode="normal" in2="BackgroundImageFix" result="effect1_dropShadow_5_93"/>
<feBlend mode="normal" in="BackgroundImageFix" in2="effect1_dropShadow_5_93" result="BackgroundImageFix"/>
<feBlend mode="normal" in="SourceGraphic" in2="BackgroundImageFix" result="shape"/>
</filter>
<clipPath id="clip0_5_93">
<rect width="128" height="128" fill="white"/>
</clipPath>
</defs>
</svg>
