<svg width="16" height="16" viewBox="0 0 16 16" fill="none" xmlns="http://www.w3.org/2000/svg">
<g clip-path="url(#clip0_5_84)">
<rect width="16" height="16" rx="3.5" fill="#1A1F26"/>
<g filter="url(#filter0_d_5_84)">
<path fill-rule="evenodd" clip-rule="evenodd" d="M6.66641 2.3531C6.55002 2.36007 6.4266 2.37266 6.39211 2.38108C6.06038 2.46206 5.82979 2.54972 5.60886 2.67881C5.43373 2.78113 5.17123 2.99121 5.05236 3.12417C5.01336 3.16779 4.97089 3.21497 4.95795 3.22902C4.87106 3.32354 4.76498 3.48834 4.67171 3.67371C4.58836 3.8394 4.54677 3.95398 4.50094 4.1443C4.46918 4.27616 4.4668 4.33668 4.45646 5.27663C4.44452 6.36033 4.44269 6.38259 4.34947 6.58136C4.29104 6.70596 4.15268 6.85391 4.03778 6.91468C3.98784 6.94109 3.85883 6.98489 3.75108 7.01203C3.64331 7.03918 3.54104 7.06719 3.5238 7.0743C3.50656 7.0814 3.43002 7.11038 3.35372 7.1387C3.10927 7.22941 2.83319 7.43778 2.64001 7.67737C2.44514 7.91906 2.36022 8.12965 2.27434 8.58411C2.26621 8.62711 2.25604 9.13027 2.25173 9.70224C2.24356 10.7853 2.26543 12.046 2.29472 12.1809C2.34768 12.4248 2.3793 12.5371 2.42878 12.6571C2.50906 12.8517 2.57696 12.9662 2.70489 13.1224C2.92382 13.3898 3.20173 13.6016 3.50196 13.7298C3.67319 13.803 3.919 13.8739 4.06988 13.8936C4.15785 13.9051 4.93398 13.9086 6.55669 13.9047C9.13596 13.8985 8.91647 13.9064 9.21182 13.8081C9.51498 13.7073 9.75944 13.5587 9.97316 13.3455C10.1375 13.1816 10.2658 12.9944 10.3594 12.7822C10.4396 12.6004 10.482 12.453 10.5077 12.2669C10.5287 12.115 10.5508 10.9933 10.5356 10.8516C10.5199 10.7053 10.5214 9.68577 10.5376 9.46464C10.5456 9.35546 10.5637 9.22175 10.5776 9.16751C10.6371 8.93702 10.7893 8.69362 10.9804 8.52335C11.0936 8.42248 11.2928 8.3165 11.4394 8.27908C11.5786 8.24357 11.6186 8.24135 11.7024 8.26457C11.7739 8.28437 11.8147 8.3435 11.8397 8.46342C11.8621 8.57116 11.8362 8.86679 11.79 9.0298C11.7071 9.32261 11.5001 9.61508 11.288 9.73891C11.2422 9.76565 11.1583 9.79212 11.0615 9.81043C10.9436 9.83269 10.9012 9.84757 10.8795 9.87422C10.8539 9.90582 10.8513 9.94807 10.8513 10.3354C10.8513 10.8232 10.8468 10.8072 10.9822 10.8013C11.2433 10.79 11.6008 10.6492 11.857 10.457C12.0316 10.3259 12.1733 10.1848 12.3094 10.0063C12.4544 9.81637 12.5592 9.62863 12.6243 9.44231C12.7095 9.19881 12.733 9.05236 12.7422 8.70921C12.7521 8.3387 12.7616 8.30452 12.862 8.27879C13.1581 8.20286 13.2949 8.13628 13.4336 8.00059C13.5098 7.92604 13.5492 7.87045 13.5945 7.77383C13.673 7.60643 13.7122 7.44765 13.7502 7.1438C13.8055 6.70125 13.8308 5.38085 13.7976 4.66449C13.7809 4.30276 13.7477 4.10315 13.6634 3.85812C13.4858 3.34187 13.0625 2.86295 12.5608 2.61063C12.3762 2.51777 12.0368 2.41402 11.7604 2.36597C11.6882 2.35343 10.9614 2.34712 9.26826 2.34434C7.95362 2.34218 6.78278 2.34612 6.66641 2.3531ZM10.052 3.4909C10.0907 3.50048 10.2369 3.51952 10.3766 3.5332C10.6769 3.56259 11.0076 3.62809 11.204 3.69711C11.5481 3.81803 11.8977 4.05915 12.1057 4.31893C12.2835 4.54099 12.3897 4.73059 12.4811 4.98904C12.5762 5.25769 12.5774 5.27635 12.593 6.66843C12.6008 7.36941 12.6031 7.98665 12.598 8.04007C12.592 8.10317 12.5775 8.15141 12.5568 8.17777L12.5247 8.21836L12.2057 8.21358C11.8977 8.20896 11.8853 8.20755 11.8509 8.17318L11.8153 8.13758L11.8058 6.85957C11.7996 6.02125 11.7906 5.56005 11.7794 5.51902C11.7701 5.48461 11.7548 5.42586 11.7453 5.38848C11.7256 5.31012 11.6305 5.09464 11.5752 5.00296C11.5235 4.91711 11.3321 4.72441 11.227 4.65243C11.14 4.59275 10.9759 4.51083 10.8592 4.4687C10.6755 4.40242 10.6399 4.40088 9.28684 4.40103C8.5473 4.40109 7.91434 4.40791 7.81266 4.41688C7.70195 4.42666 7.59039 4.44739 7.51803 4.47164C7.40572 4.50925 7.24611 4.58844 7.141 4.6587C7.04947 4.71989 6.91554 4.84506 6.83788 4.942C6.74405 5.05914 6.61564 5.31979 6.56904 5.48774C6.53485 5.61088 6.53418 5.63291 6.52591 6.88291C6.51802 8.07469 6.51578 8.15468 6.48952 8.18088C6.46429 8.20605 6.42613 8.20879 6.10021 8.20879C5.74375 8.20879 5.73851 8.20832 5.71014 8.17338C5.69298 8.15224 5.67724 8.09867 5.6711 8.04046C5.66544 7.98682 5.66385 7.36589 5.66757 6.66061C5.67223 5.78224 5.68023 5.33954 5.69298 5.25531C5.73235 4.99545 5.89493 4.62337 6.06296 4.40854C6.27891 4.13243 6.52829 3.93228 6.85093 3.77611C7.05149 3.67903 7.31434 3.59834 7.55982 3.5585C7.70999 3.53415 8.17901 3.47953 8.29648 3.47275C8.35252 3.46951 8.75455 3.46834 9.18989 3.47017C9.70792 3.47232 10.0058 3.47949 10.052 3.4909ZM5.49535 8.28352C5.5899 8.32462 5.6027 8.37438 5.61679 8.75613C5.62946 9.09921 5.6483 9.21645 5.73499 9.49113C5.79494 9.68113 5.92109 9.92302 6.03071 10.0583C6.15275 10.2088 6.31694 10.364 6.46602 10.4697C6.63322 10.5883 6.89561 10.7095 7.11311 10.7686L7.30119 10.8197L8.26986 10.8247C9.16511 10.8294 9.24235 10.8318 9.28867 10.8577L9.33879 10.8856L9.34297 11.3023C9.34527 11.5315 9.34058 11.7561 9.33256 11.8014C9.29339 12.0225 9.20699 12.2187 9.08481 12.3643C8.99854 12.467 8.86498 12.574 8.72822 12.6499C8.6761 12.6789 8.57352 12.7189 8.50024 12.7389L8.36702 12.7751H6.47831H4.58962L4.45938 12.738C4.30044 12.6927 4.09793 12.5915 3.97088 12.4939C3.91877 12.4539 3.83765 12.3731 3.7906 12.3143C3.63265 12.1167 3.55711 11.9239 3.53063 11.6507C3.5198 11.5388 3.51593 11.0939 3.51977 10.3981C3.52554 9.35091 3.52671 9.31531 3.55974 9.19032C3.59273 9.06536 3.69203 8.84628 3.74736 8.77632C3.82397 8.67946 3.98617 8.52205 4.05919 8.47369C4.16008 8.40688 4.32848 8.33409 4.46006 8.30043C4.61752 8.26016 4.75637 8.25022 5.10685 8.25408C5.37238 8.25702 5.44748 8.26271 5.49535 8.28352ZM8.32783 8.27903C8.65156 8.31607 8.89053 8.41871 9.07386 8.59952C9.17901 8.7032 9.21992 8.76898 9.31718 8.9907C9.34516 9.05449 9.36169 9.24861 9.36199 9.51676C9.36237 9.84912 9.36099 9.85228 9.20556 9.87462C9.06381 9.89499 8.09973 9.89359 7.86814 9.87267C7.76321 9.86317 7.61266 9.83871 7.53358 9.81829C7.24237 9.74307 6.94787 9.53058 6.81455 9.29944C6.79103 9.25864 6.76259 9.21464 6.75139 9.20162C6.74017 9.18864 6.70798 9.11122 6.67987 9.02961C6.63153 8.88938 6.6284 8.86663 6.62258 8.61523C6.61673 8.36265 6.61805 8.34777 6.64861 8.32018C6.66631 8.30418 6.70401 8.28562 6.73237 8.27891C6.80796 8.26105 8.17158 8.26115 8.32783 8.27903ZM10.8043 10.8187C10.8043 10.8221 10.8149 10.8289 10.8278 10.8338C10.8407 10.8388 10.8513 10.836 10.8513 10.8277C10.8513 10.8194 10.8407 10.8125 10.8278 10.8125C10.8149 10.8125 10.8043 10.8153 10.8043 10.8187Z" fill="#1CA2E4"/>
</g>
</g>
<defs>
<filter id="filter0_d_5_84" x="-24.25" y="-20.1562" width="64.5625" height="64.5625" filterUnits="userSpaceOnUse" color-interpolation-filters="sRGB">
<feFlood flood-opacity="0" result="BackgroundImageFix"/>
<feColorMatrix in="SourceAlpha" type="matrix" values="0 0 0 0 0 0 0 0 0 0 0 0 0 0 0 0 0 0 127 0" result="hardAlpha"/>
<feOffset dy="4"/>
<feGaussianBlur stdDeviation="13.25"/>
<feComposite in2="hardAlpha" operator="out"/>
<feColorMatrix type="matrix" values="0 0 0 0 0 0 0 0 0 0 0 0 0 0 0 0 0 0 0.25 0"/>
<feBlend mode="normal" in2="BackgroundImageFix" result="effect1_dropShadow_5_84"/>
<feBlend mode="normal" in="BackgroundImageFix" in2="effect1_dropShadow_5_84" result="BackgroundImageFix"/>
<feBlend mode="normal" in="SourceGraphic" in2="BackgroundImageFix" result="shape"/>
</filter>
<clipPath id="clip0_5_84">
<rect width="16" height="16" fill="white"/>
</clipPath>
</defs>
</svg>
