<svg width="256" height="256" viewBox="0 0 256 256" fill="none" xmlns="http://www.w3.org/2000/svg">
<g clip-path="url(#clip0_5_96)">
<rect width="256" height="256" rx="58" fill="#1A1F26"/>
<g filter="url(#filter0_d_5_96)">
<path fill-rule="evenodd" clip-rule="evenodd" d="M105.663 35.1496C103.8 35.2612 101.826 35.4626 101.274 35.5972C95.966 36.893 92.2767 38.2955 88.7418 40.361C85.9397 41.9981 81.7396 45.3594 79.8377 47.4867C79.2137 48.1846 78.5342 48.9395 78.3272 49.1644C76.937 50.6767 75.2396 53.3134 73.7474 56.2794C72.4137 58.9304 71.7483 60.7636 71.015 63.8087C70.507 65.9185 70.4688 66.8869 70.3033 81.9261C70.1124 99.2652 70.0831 99.6215 68.5915 102.802C67.6566 104.795 65.4429 107.163 63.6045 108.135C62.8054 108.557 60.7413 109.258 59.0172 109.692C57.2929 110.127 55.6567 110.575 55.3808 110.689C55.1049 110.802 53.8804 111.266 52.6596 111.719C48.7484 113.171 44.3311 116.505 41.2402 120.338C38.1223 124.205 36.7635 127.574 35.3895 134.846C35.2594 135.534 35.0966 143.584 35.0276 152.736C34.897 170.064 35.2468 190.236 35.7155 192.394C36.5629 196.297 37.0687 198.094 37.8605 200.013C39.145 203.128 40.2313 204.959 42.2782 207.459C45.7811 211.737 50.2277 215.125 55.0314 217.177C57.771 218.347 61.7041 219.482 64.1181 219.798C65.5257 219.982 77.9436 220.038 103.907 219.975C145.175 219.876 141.664 220.002 146.389 218.43C151.24 216.817 155.151 214.44 158.571 211.028C161.2 208.405 163.254 205.41 164.751 202.015C166.034 199.106 166.713 196.748 167.123 193.77C167.459 191.339 167.813 173.393 167.57 171.126C167.319 168.784 167.343 152.472 167.602 148.934C167.73 147.187 168.018 145.048 168.242 144.18C169.194 140.492 171.628 136.598 174.686 133.874C176.497 132.26 179.684 130.564 182.031 129.965C184.258 129.397 184.898 129.362 186.239 129.733C187.383 130.05 188.036 130.996 188.435 132.915C188.794 134.639 188.379 139.369 187.641 141.977C186.314 146.662 183.001 151.341 179.608 153.323C178.876 153.75 177.533 154.174 175.984 154.467C174.098 154.823 173.419 155.061 173.073 155.488C172.662 155.993 172.621 156.669 172.621 162.866C172.621 170.671 172.549 170.415 174.715 170.321C178.892 170.139 184.613 167.888 188.712 164.812C191.506 162.715 193.773 160.457 195.951 157.601C198.27 154.562 199.947 151.558 200.989 148.577C202.352 144.681 202.729 142.338 202.875 136.847C203.033 130.919 203.185 130.372 204.792 129.961C209.529 128.746 211.718 127.68 213.937 125.509C215.157 124.317 215.788 123.427 216.512 121.881C217.768 119.203 218.395 116.662 219.003 111.801C219.889 104.72 220.293 83.5937 219.762 72.1318C219.495 66.3442 218.964 63.1504 217.614 59.23C214.772 50.9699 208 43.3072 199.973 39.2701C197.019 37.7843 191.588 36.1244 187.166 35.3555C186.012 35.1548 174.383 35.054 147.292 35.0095C126.258 34.9749 107.524 35.038 105.663 35.1496ZM159.831 53.3544C160.452 53.5076 162.79 53.8124 165.026 54.0312C169.83 54.5015 175.121 55.5495 178.264 56.6537C183.769 58.5884 189.364 62.4463 192.691 66.6029C195.536 70.1558 197.235 73.1894 198.698 77.3246C200.218 81.623 200.238 81.9216 200.487 104.195C200.613 115.411 200.649 125.286 200.568 126.141C200.472 127.151 200.241 127.923 199.908 128.344L199.396 128.994L194.291 128.917C189.363 128.843 189.166 128.821 188.615 128.271L188.044 127.701L187.893 107.253C187.794 93.84 187.649 86.4608 187.471 85.8043C187.322 85.2538 187.076 84.3138 186.925 83.7156C186.61 82.462 185.088 79.0142 184.204 77.5474C183.376 76.1738 180.313 73.0905 178.632 71.9388C177.24 70.984 174.615 69.6733 172.746 68.9992C169.808 67.9387 169.238 67.9142 147.589 67.9165C135.757 67.9174 125.629 68.0265 124.003 68.1702C122.231 68.3266 120.446 68.6583 119.288 69.0462C117.492 69.648 114.938 70.915 113.256 72.0393C111.792 73.0183 109.649 75.021 108.406 76.572C106.905 78.4462 104.85 82.6166 104.105 85.3038C103.558 87.2741 103.547 87.6266 103.414 107.627C103.288 126.695 103.252 127.975 102.832 128.394C102.429 128.797 101.818 128.841 96.6034 128.841C90.9 128.841 90.8162 128.833 90.3622 128.274C90.0878 127.936 89.8359 127.079 89.7376 126.147C89.6471 125.289 89.6216 115.354 89.6811 104.07C89.7557 90.0159 89.8836 82.9326 90.0878 81.585C90.7176 77.4272 93.319 71.474 96.0074 68.0366C99.4626 63.6189 103.453 60.4164 108.615 57.9178C111.824 56.3645 116.029 55.0734 119.957 54.4361C122.36 54.0464 129.864 53.1725 131.744 53.0639C132.64 53.0121 139.073 52.9934 146.038 53.0227C154.327 53.0572 159.093 53.1718 159.831 53.3544ZM86.9256 130.036C88.4385 130.694 88.6432 131.49 88.8686 137.598C89.0713 143.087 89.3729 144.963 90.7598 149.358C91.719 152.398 93.7374 156.268 95.4914 158.432C97.4441 160.841 100.071 163.324 102.456 165.015C105.132 166.913 109.33 168.852 112.81 169.797L115.819 170.615L131.318 170.695C145.642 170.77 146.878 170.81 147.619 171.223L148.421 171.67L148.487 178.337C148.524 182.005 148.449 185.598 148.321 186.323C147.694 189.859 146.312 192.999 144.357 195.328C142.977 196.972 140.84 198.685 138.652 199.899C137.818 200.362 136.176 201.002 135.004 201.322L132.872 201.902H102.653H72.4339L70.3501 201.308C67.8071 200.583 64.5669 198.964 62.534 197.403C61.7003 196.763 60.4024 195.469 59.6495 194.528C57.1224 191.368 55.9138 188.283 55.4901 183.912C55.3168 182.121 55.2549 175.002 55.3163 163.87C55.4086 147.115 55.4274 146.545 55.9558 144.545C56.4837 142.546 58.0725 139.04 58.9578 137.921C60.1836 136.371 62.7787 133.853 63.947 133.079C65.5613 132.01 68.2557 130.846 70.361 130.307C72.8803 129.663 75.102 129.504 80.7096 129.565C84.9581 129.612 86.1597 129.703 86.9256 130.036ZM132.245 129.964C137.425 130.557 141.248 132.199 144.182 135.092C145.864 136.751 146.519 137.804 148.075 141.351C148.523 142.372 148.787 145.478 148.792 149.768C148.798 155.086 148.776 155.137 146.289 155.494C144.021 155.82 128.596 155.797 124.89 155.463C123.211 155.311 120.803 154.919 119.537 154.593C114.878 153.389 110.166 149.989 108.033 146.291C107.657 145.638 107.201 144.934 107.022 144.726C106.843 144.518 106.328 143.28 105.878 141.974C105.104 139.73 105.054 139.366 104.961 135.344C104.868 131.302 104.889 131.064 105.378 130.623C105.661 130.367 106.264 130.07 106.718 129.963C107.927 129.677 129.745 129.678 132.245 129.964ZM171.869 170.599C171.869 170.653 172.038 170.762 172.245 170.842C172.452 170.921 172.621 170.876 172.621 170.743C172.621 170.61 172.452 170.501 172.245 170.501C172.038 170.501 171.869 170.545 171.869 170.599Z" fill="#1CA2E4"/>
</g>
</g>
<defs>
<filter id="filter0_d_5_96" x="8.5" y="12.5" width="238" height="238" filterUnits="userSpaceOnUse" color-interpolation-filters="sRGB">
<feFlood flood-opacity="0" result="BackgroundImageFix"/>
<feColorMatrix in="SourceAlpha" type="matrix" values="0 0 0 0 0 0 0 0 0 0 0 0 0 0 0 0 0 0 127 0" result="hardAlpha"/>
<feOffset dy="4"/>
<feGaussianBlur stdDeviation="13.25"/>
<feComposite in2="hardAlpha" operator="out"/>
<feColorMatrix type="matrix" values="0 0 0 0 0 0 0 0 0 0 0 0 0 0 0 0 0 0 0.25 0"/>
<feBlend mode="normal" in2="BackgroundImageFix" result="effect1_dropShadow_5_96"/>
<feBlend mode="normal" in="BackgroundImageFix" in2="effect1_dropShadow_5_96" result="BackgroundImageFix"/>
<feBlend mode="normal" in="SourceGraphic" in2="BackgroundImageFix" result="shape"/>
</filter>
<clipPath id="clip0_5_96">
<rect width="256" height="256" fill="white"/>
</clipPath>
</defs>
</svg>
