<svg width="32" height="32" viewBox="0 0 32 32" fill="none" xmlns="http://www.w3.org/2000/svg">
<g clip-path="url(#clip0_5_87)">
<rect width="32" height="32" rx="7" fill="#1A1F26"/>
<g filter="url(#filter0_d_5_87)">
<path fill-rule="evenodd" clip-rule="evenodd" d="M13.3328 4.5812C13.1 4.59515 12.8532 4.62032 12.7842 4.63715C12.1208 4.79913 11.6596 4.97444 11.2177 5.23262C10.8675 5.43726 10.3425 5.85743 10.1047 6.12334C10.0267 6.21057 9.94178 6.30493 9.9159 6.33305C9.74212 6.52209 9.52996 6.85168 9.34342 7.22242C9.17671 7.5538 9.09354 7.78296 9.00187 8.16359C8.93837 8.42732 8.9336 8.54836 8.91292 10.4283C8.88905 12.5957 8.88539 12.6402 8.69894 13.0377C8.58208 13.2869 8.30536 13.5828 8.07556 13.7044C7.97567 13.7572 7.71766 13.8448 7.50215 13.8991C7.28662 13.9534 7.08208 14.0094 7.0476 14.0236C7.01311 14.0378 6.86005 14.0958 6.70745 14.1524C6.21855 14.3338 5.66639 14.7506 5.28003 15.2297C4.89028 15.7131 4.72044 16.1343 4.54869 17.0432C4.53242 17.1292 4.51207 18.1355 4.50345 19.2795C4.48712 21.4455 4.53085 23.967 4.58944 24.2368C4.69536 24.7246 4.75859 24.9492 4.85756 25.1891C5.01812 25.5785 5.15392 25.8073 5.40978 26.1198C5.84764 26.6546 6.40347 27.0782 7.00392 27.3346C7.34637 27.4809 7.83801 27.6227 8.13976 27.6622C8.31571 27.6853 9.86796 27.6923 13.1134 27.6844C18.2719 27.672 17.8329 27.6878 18.4236 27.4913C19.03 27.2896 19.5189 26.9925 19.9463 26.566C20.275 26.2381 20.5317 25.8637 20.7189 25.4393C20.8793 25.0757 20.9641 24.781 21.0154 24.4088C21.0574 24.1049 21.1016 21.8616 21.0712 21.5783C21.0399 21.2855 21.0428 19.2465 21.0753 18.8043C21.0913 18.5859 21.1273 18.3185 21.1553 18.21C21.2742 17.749 21.5786 17.2622 21.9608 16.9217C22.1871 16.72 22.5855 16.508 22.8788 16.4332C23.1572 16.3621 23.2373 16.3577 23.4049 16.4041C23.5478 16.4437 23.6295 16.562 23.6793 16.8018C23.7242 17.0173 23.6724 17.6086 23.5801 17.9346C23.4143 18.5202 23.0001 19.1052 22.576 19.3528C22.4845 19.4063 22.3166 19.4592 22.123 19.4959C21.8872 19.5404 21.8024 19.5701 21.7591 19.6234C21.7078 19.6866 21.7026 19.7711 21.7026 20.5458C21.7026 21.5214 21.6936 21.4893 21.9643 21.4776C22.4866 21.4549 23.2016 21.1735 23.714 20.789C24.0632 20.5269 24.3466 20.2446 24.6189 19.8877C24.9087 19.5077 25.1184 19.1323 25.2487 18.7596C25.419 18.2726 25.4661 17.9797 25.4844 17.2934C25.5041 16.5524 25.5232 16.484 25.724 16.4326C26.3161 16.2807 26.5898 16.1476 26.8672 15.8762C27.0196 15.7271 27.0985 15.6159 27.189 15.4227C27.346 15.0879 27.4243 14.7703 27.5004 14.1626C27.6111 13.2775 27.6617 10.6367 27.5953 9.20397C27.5619 8.48052 27.4955 8.0813 27.3268 7.59125C26.9715 6.55874 26.125 5.6009 25.1217 5.09626C24.7524 4.91054 24.0736 4.70305 23.5208 4.60694C23.3765 4.58185 21.9229 4.56925 18.5365 4.56368C15.9072 4.55937 13.5656 4.56725 13.3328 4.5812ZM20.1039 6.8568C20.1815 6.87595 20.4737 6.91405 20.7533 6.9414C21.3538 7.00018 22.0151 7.13119 22.408 7.26921C23.0962 7.51106 23.7955 7.99329 24.2114 8.51286C24.567 8.95698 24.7794 9.33617 24.9622 9.85308C25.1523 10.3904 25.1548 10.4277 25.1859 13.2119C25.2016 14.6138 25.2061 15.8483 25.196 15.9551C25.184 16.0813 25.1551 16.1778 25.1135 16.2305L25.0495 16.3117L24.4114 16.3022C23.7954 16.2929 23.7707 16.2901 23.7019 16.2214L23.6305 16.1502L23.6116 13.5941C23.5993 11.9175 23.5811 10.9951 23.5588 10.913C23.5402 10.8442 23.5095 10.7267 23.4907 10.652C23.4512 10.4952 23.261 10.0643 23.1505 9.88092C23.047 9.70922 22.6641 9.32382 22.4541 9.17985C22.28 9.0605 21.9519 8.89666 21.7183 8.8124C21.3509 8.67984 21.2798 8.67677 18.5737 8.67706C17.0946 8.67718 15.8287 8.69082 15.6253 8.70877C15.4039 8.72833 15.1808 8.76979 15.0361 8.81827C14.8114 8.8935 14.4922 9.05187 14.282 9.19241C14.0989 9.31479 13.8311 9.56512 13.6758 9.75899C13.4881 9.99327 13.2313 10.5146 13.1381 10.8505C13.0697 11.0968 13.0684 11.1408 13.0518 13.6408C13.036 16.0244 13.0316 16.1844 12.979 16.2368C12.9286 16.2871 12.8523 16.2926 12.2004 16.2926C11.4875 16.2926 11.477 16.2916 11.4203 16.2218C11.386 16.1795 11.3545 16.0723 11.3422 15.9559C11.3309 15.8486 11.3277 14.6068 11.3351 13.1962C11.3445 11.4395 11.3605 10.5541 11.386 10.3856C11.4647 9.8659 11.7899 9.12175 12.1259 8.69208C12.5578 8.13986 13.0566 7.73955 13.7019 7.42723C14.103 7.23306 14.6287 7.07168 15.1196 6.99201C15.42 6.9433 16.358 6.83406 16.593 6.82049C16.705 6.81402 17.5091 6.81167 18.3798 6.81533C19.4158 6.81965 20.0116 6.83397 20.1039 6.8568ZM10.9907 16.442C11.1798 16.5242 11.2054 16.6238 11.2336 17.3873C11.2589 18.0734 11.2966 18.3079 11.47 18.8573C11.5899 19.2373 11.8422 19.721 12.0614 19.9915C12.3055 20.2926 12.6339 20.603 12.932 20.8144C13.2664 21.0516 13.7912 21.294 14.2262 21.4122L14.6024 21.5143L16.5397 21.5244C18.3302 21.5337 18.4847 21.5387 18.5773 21.5903L18.6776 21.6462L18.6859 22.4797C18.6905 22.9381 18.6812 23.3873 18.6651 23.4778C18.5868 23.9199 18.414 24.3124 18.1696 24.6035C17.9971 24.8091 17.73 25.0231 17.4564 25.1749C17.3522 25.2328 17.147 25.3128 17.0005 25.3527L16.734 25.4253H12.9566H9.17924L8.91877 25.351C8.60089 25.2603 8.19586 25.058 7.94175 24.8629C7.83753 24.7829 7.6753 24.6211 7.58119 24.5035C7.2653 24.1085 7.11422 23.7228 7.06126 23.1765C7.0396 22.9527 7.03186 22.0627 7.03954 20.6713C7.05108 18.5768 7.05343 18.5056 7.11948 18.2556C7.18547 18.0057 7.38406 17.5676 7.49472 17.4276C7.64795 17.2339 7.97233 16.9191 8.11838 16.8224C8.32016 16.6888 8.65696 16.5432 8.92012 16.4759C9.23504 16.3953 9.51275 16.3754 10.2137 16.3832C10.7448 16.389 10.895 16.4004 10.9907 16.442ZM16.6557 16.4331C17.3031 16.5071 17.7811 16.7124 18.1477 17.074C18.358 17.2814 18.4398 17.413 18.6344 17.8564C18.6903 17.984 18.7234 18.3722 18.724 18.9085C18.7247 19.5732 18.722 19.5796 18.4111 19.6242C18.1276 19.665 16.1995 19.6622 15.7363 19.6203C15.5264 19.6013 15.2253 19.5524 15.0672 19.5116C14.4847 19.3611 13.8957 18.9362 13.6291 18.4739C13.5821 18.3923 13.5252 18.3043 13.5028 18.2782C13.4803 18.2523 13.416 18.0974 13.3597 17.9342C13.2631 17.6538 13.2568 17.6083 13.2452 17.1055C13.2335 16.6003 13.2361 16.5705 13.2972 16.5154C13.3326 16.4834 13.408 16.4462 13.4647 16.4328C13.6159 16.3971 16.3432 16.3973 16.6557 16.4331ZM21.6086 21.5124C21.6086 21.5191 21.6298 21.5328 21.6556 21.5427C21.6815 21.5526 21.7026 21.5471 21.7026 21.5304C21.7026 21.5137 21.6815 21.5001 21.6556 21.5001C21.6298 21.5001 21.6086 21.5056 21.6086 21.5124Z" fill="#1CA2E4"/>
</g>
</g>
<defs>
<filter id="filter0_d_5_87" x="-22" y="-17.9375" width="76.125" height="76.125" filterUnits="userSpaceOnUse" color-interpolation-filters="sRGB">
<feFlood flood-opacity="0" result="BackgroundImageFix"/>
<feColorMatrix in="SourceAlpha" type="matrix" values="0 0 0 0 0 0 0 0 0 0 0 0 0 0 0 0 0 0 127 0" result="hardAlpha"/>
<feOffset dy="4"/>
<feGaussianBlur stdDeviation="13.25"/>
<feComposite in2="hardAlpha" operator="out"/>
<feColorMatrix type="matrix" values="0 0 0 0 0 0 0 0 0 0 0 0 0 0 0 0 0 0 0.25 0"/>
<feBlend mode="normal" in2="BackgroundImageFix" result="effect1_dropShadow_5_87"/>
<feBlend mode="normal" in="BackgroundImageFix" in2="effect1_dropShadow_5_87" result="BackgroundImageFix"/>
<feBlend mode="normal" in="SourceGraphic" in2="BackgroundImageFix" result="shape"/>
</filter>
<clipPath id="clip0_5_87">
<rect width="32" height="32" fill="white"/>
</clipPath>
</defs>
</svg>
