<svg width="1280" height="320" viewBox="0 0 1280 320" fill="none" xmlns="http://www.w3.org/2000/svg">
<g filter="url(#filter0_d_9_38)">
<path fill-rule="evenodd" clip-rule="evenodd" d="M409.67 40.194C407.255 40.3388 404.693 40.6001 403.977 40.7747C397.091 42.4558 392.305 44.2752 387.719 46.9548C384.084 49.0786 378.635 53.4393 376.168 56.199C375.358 57.1043 374.477 58.0836 374.208 58.3754C372.405 60.3373 370.203 63.7579 368.267 67.6057C366.537 71.0449 365.673 73.4231 364.722 77.3735C364.063 80.1105 364.014 81.3668 363.799 100.877C363.551 123.371 363.513 123.833 361.578 127.959C360.365 130.545 357.494 133.616 355.109 134.878C354.072 135.426 351.394 136.335 349.157 136.898C346.921 137.462 344.798 138.043 344.44 138.191C344.082 138.338 342.493 138.94 340.91 139.528C335.836 141.41 330.105 145.736 326.095 150.709C322.051 155.725 320.288 160.097 318.505 169.53C318.336 170.422 318.125 180.866 318.036 192.738C317.866 215.218 318.32 241.388 318.928 244.187C320.028 249.25 320.684 251.581 321.711 254.071C323.377 258.112 324.787 260.487 327.442 263.73C331.986 269.28 337.755 273.676 343.987 276.337C347.541 277.856 352.643 279.328 355.775 279.738C357.601 279.977 373.711 280.05 407.393 279.968C460.93 279.839 456.374 280.003 462.505 277.964C468.797 275.871 473.872 272.787 478.308 268.361C481.719 264.958 484.383 261.072 486.326 256.668C487.99 252.894 488.87 249.836 489.403 245.972C489.839 242.819 490.298 219.536 489.983 216.596C489.657 213.558 489.688 192.397 490.024 187.806C490.191 185.54 490.564 182.765 490.855 181.639C492.089 176.855 495.248 171.803 499.215 168.268C501.564 166.175 505.698 163.975 508.742 163.198C511.632 162.461 512.463 162.415 514.202 162.897C515.686 163.308 516.533 164.535 517.051 167.024C517.516 169.261 516.978 175.397 516.02 178.781C514.299 184.859 510.001 190.929 505.6 193.499C504.649 194.054 502.908 194.604 500.899 194.984C498.451 195.446 497.57 195.755 497.121 196.308C496.589 196.964 496.535 197.841 496.535 205.881C496.535 216.006 496.442 215.673 499.251 215.551C504.671 215.316 512.092 212.395 517.41 208.404C521.034 205.684 523.975 202.755 526.802 199.05C529.809 195.107 531.985 191.211 533.338 187.343C535.105 182.289 535.594 179.249 535.784 172.126C535.989 164.436 536.186 163.726 538.271 163.192C544.416 161.616 547.256 160.234 550.135 157.418C551.717 155.87 552.535 154.716 553.475 152.711C555.104 149.236 555.917 145.94 556.707 139.633C557.856 130.448 558.381 103.04 557.692 88.1709C557.345 80.6627 556.656 76.5194 554.905 71.4335C551.218 60.7178 542.432 50.7769 532.019 45.5395C528.187 43.6121 521.142 41.4587 515.405 40.4612C513.907 40.2009 498.821 40.07 463.676 40.0123C436.389 39.9675 412.086 40.0493 409.67 40.194ZM479.943 63.8111C480.749 64.0099 483.781 64.4053 486.683 64.6891C492.915 65.2992 499.779 66.6588 503.856 68.0913C510.998 70.6012 518.256 75.6061 522.572 80.9983C526.262 85.6076 528.467 89.543 530.365 94.9076C532.337 100.484 532.363 100.871 532.686 129.766C532.849 144.317 532.896 157.128 532.791 158.237C532.666 159.547 532.366 160.548 531.935 161.095L531.27 161.938L524.648 161.839C518.255 161.743 517.999 161.713 517.284 161L516.544 160.261L516.348 133.734C516.219 116.333 516.031 106.76 515.8 105.908C515.606 105.194 515.288 103.975 515.092 103.199C514.683 101.572 512.709 97.0995 511.562 95.1966C510.487 93.4146 506.514 89.4148 504.334 87.9206C502.527 86.682 499.122 84.9816 496.698 84.1071C492.885 82.7313 492.147 82.6994 464.062 82.7025C448.711 82.7037 435.573 82.8452 433.463 83.0316C431.165 83.2345 428.849 83.6648 427.347 84.168C425.016 84.9487 421.703 86.5924 419.521 88.0509C417.621 89.321 414.842 91.9191 413.23 93.9312C411.282 96.3626 408.617 101.773 407.649 105.259C406.94 107.815 406.926 108.272 406.754 134.218C406.59 158.956 406.544 160.616 405.999 161.16C405.475 161.682 404.683 161.739 397.918 161.739C390.519 161.739 390.41 161.729 389.821 161.004C389.465 160.566 389.138 159.453 389.011 158.245C388.894 157.132 388.861 144.243 388.938 129.604C389.034 111.372 389.2 102.183 389.465 100.435C390.282 95.0407 393.657 87.3176 397.145 82.8584C401.627 77.1272 406.803 72.9726 413.5 69.7312C417.663 67.7161 423.119 66.0412 428.215 65.2143C431.332 64.7088 441.067 63.5751 443.505 63.4343C444.668 63.3671 453.013 63.3428 462.05 63.3808C472.802 63.4255 478.985 63.5742 479.943 63.8111ZM385.363 163.29C387.326 164.143 387.591 165.176 387.884 173.1C388.147 180.221 388.538 182.655 390.337 188.356C391.581 192.3 394.2 197.321 396.475 200.128C399.009 203.253 402.417 206.474 405.511 208.669C408.981 211.13 414.428 213.646 418.942 214.872L422.846 215.932L442.953 216.037C461.535 216.134 463.138 216.185 464.1 216.721L465.14 217.301L465.227 225.951C465.275 230.709 465.178 235.37 465.011 236.31C464.198 240.899 462.405 244.972 459.868 247.993C458.078 250.126 455.306 252.348 452.467 253.923C451.385 254.524 449.256 255.354 447.735 255.769L444.969 256.522H405.766H366.563L363.86 255.751C360.561 254.81 356.357 252.71 353.72 250.685C352.638 249.855 350.954 248.176 349.978 246.955C346.699 242.855 345.131 238.853 344.582 233.183C344.357 230.86 344.277 221.624 344.356 207.183C344.476 185.446 344.5 184.707 345.186 182.113C345.871 179.519 347.932 174.971 349.08 173.519C350.671 171.509 354.037 168.242 355.553 167.238C357.647 165.851 361.143 164.34 363.874 163.641C367.142 162.805 370.024 162.599 377.299 162.679C382.811 162.74 384.369 162.858 385.363 163.29ZM444.156 163.197C450.876 163.966 455.836 166.097 459.641 169.85C461.824 172.002 462.673 173.367 464.692 177.969C465.272 179.293 465.616 183.322 465.622 188.888C465.63 195.787 465.601 195.853 462.375 196.316C459.433 196.739 439.421 196.71 434.614 196.276C432.436 196.079 429.311 195.571 427.67 195.147C421.625 193.586 415.513 189.175 412.745 184.378C412.257 183.531 411.667 182.617 411.434 182.347C411.201 182.078 410.533 180.471 409.95 178.777C408.946 175.866 408.881 175.394 408.761 170.176C408.639 164.933 408.666 164.624 409.301 164.051C409.668 163.719 410.451 163.334 411.039 163.195C412.608 162.824 440.913 162.826 444.156 163.197ZM495.559 215.912C495.559 215.982 495.779 216.124 496.047 216.227C496.316 216.33 496.535 216.272 496.535 216.099C496.535 215.926 496.316 215.785 496.047 215.785C495.779 215.785 495.559 215.842 495.559 215.912Z" fill="#2EA7F2"/>
</g>
<path d="M601.264 106.335C602.804 106.335 604.399 106.775 606.049 107.655C607.809 108.425 609.129 109.47 610.009 110.79L650.104 172.5L641.854 172.17L682.939 110.79C685.029 107.82 687.724 106.335 691.024 106.335C693.664 106.335 696.029 107.27 698.119 109.14C700.209 111.01 701.254 113.43 701.254 116.4V211.935C701.254 214.795 700.319 217.215 698.449 219.195C696.579 221.065 694.104 222 691.024 222C687.944 222 685.414 221.065 683.434 219.195C681.564 217.215 680.629 214.795 680.629 211.935V134.22L687.064 135.705L653.404 187.02C652.414 188.23 651.149 189.275 649.609 190.155C648.179 191.035 646.694 191.42 645.154 191.31C643.724 191.42 642.239 191.035 640.699 190.155C639.269 189.275 638.059 188.23 637.069 187.02L605.554 137.19L609.844 128.445V211.935C609.844 214.795 608.964 217.215 607.204 219.195C605.444 221.065 603.134 222 600.274 222C597.524 222 595.269 221.065 593.509 219.195C591.749 217.215 590.869 214.795 590.869 211.935V116.4C590.869 113.65 591.859 111.285 593.839 109.305C595.929 107.325 598.404 106.335 601.264 106.335ZM743.054 211.935C743.054 214.795 742.119 217.215 740.249 219.195C738.379 221.065 736.014 222 733.154 222C730.294 222 727.929 221.065 726.059 219.195C724.189 217.215 723.254 214.795 723.254 211.935V143.79C723.254 140.93 724.189 138.565 726.059 136.695C727.929 134.715 730.294 133.725 733.154 133.725C736.014 133.725 738.379 134.715 740.249 136.695C742.119 138.565 743.054 140.93 743.054 143.79V211.935ZM732.989 123C729.249 123 726.609 122.395 725.069 121.185C723.529 119.975 722.759 117.83 722.759 114.75V111.615C722.759 108.425 723.584 106.28 725.234 105.18C726.994 103.97 729.634 103.365 733.154 103.365C737.004 103.365 739.699 103.97 741.239 105.18C742.779 106.39 743.549 108.535 743.549 111.615V114.75C743.549 117.94 742.724 120.14 741.074 121.35C739.424 122.45 736.729 123 732.989 123ZM773.303 222C770.443 222 768.078 221.065 766.208 219.195C764.338 217.215 763.403 214.795 763.403 211.935V143.79C763.403 140.93 764.338 138.565 766.208 136.695C768.078 134.715 770.443 133.725 773.303 133.725C776.163 133.725 778.528 134.715 780.398 136.695C782.268 138.565 783.203 140.93 783.203 143.79V159.3L782.048 148.245C783.258 145.605 784.798 143.295 786.668 141.315C788.648 139.225 790.848 137.52 793.268 136.2C795.688 134.77 798.273 133.725 801.023 133.065C803.773 132.405 806.523 132.075 809.273 132.075C812.573 132.075 815.323 133.01 817.523 134.88C819.833 136.75 820.988 138.95 820.988 141.48C820.988 145.11 820.053 147.75 818.183 149.4C816.313 150.94 814.278 151.71 812.078 151.71C809.988 151.71 808.063 151.325 806.303 150.555C804.653 149.785 802.728 149.4 800.528 149.4C798.548 149.4 796.513 149.895 794.423 150.885C792.443 151.765 790.573 153.195 788.813 155.175C787.163 157.155 785.788 159.63 784.688 162.6C783.698 165.46 783.203 168.87 783.203 172.83V211.935C783.203 214.795 782.268 217.215 780.398 219.195C778.528 221.065 776.163 222 773.303 222ZM853.591 211.935C853.591 214.795 852.656 217.215 850.786 219.195C848.916 221.065 846.551 222 843.691 222C840.831 222 838.466 221.065 836.596 219.195C834.726 217.215 833.791 214.795 833.791 211.935V143.79C833.791 140.93 834.726 138.565 836.596 136.695C838.466 134.715 840.831 133.725 843.691 133.725C846.551 133.725 848.916 134.715 850.786 136.695C852.656 138.565 853.591 140.93 853.591 143.79V211.935ZM843.526 123C839.786 123 837.146 122.395 835.606 121.185C834.066 119.975 833.296 117.83 833.296 114.75V111.615C833.296 108.425 834.121 106.28 835.771 105.18C837.531 103.97 840.171 103.365 843.691 103.365C847.541 103.365 850.236 103.97 851.776 105.18C853.316 106.39 854.086 108.535 854.086 111.615V114.75C854.086 117.94 853.261 120.14 851.611 121.35C849.961 122.45 847.266 123 843.526 123ZM921.13 132.075C929.27 132.075 935.43 133.78 939.61 137.19C943.9 140.6 946.815 145.165 948.355 150.885C950.005 156.495 950.83 162.765 950.83 169.695V211.935C950.83 214.795 949.895 217.215 948.025 219.195C946.155 221.065 943.79 222 940.93 222C938.07 222 935.705 221.065 933.835 219.195C931.965 217.215 931.03 214.795 931.03 211.935V169.695C931.03 166.065 930.535 162.82 929.545 159.96C928.665 156.99 927.015 154.625 924.595 152.865C922.175 151.105 918.71 150.225 914.2 150.225C909.8 150.225 906.06 151.105 902.98 152.865C900.01 154.625 897.7 156.99 896.05 159.96C894.51 162.82 893.74 166.065 893.74 169.695V211.935C893.74 214.795 892.805 217.215 890.935 219.195C889.065 221.065 886.7 222 883.84 222C880.98 222 878.615 221.065 876.745 219.195C874.875 217.215 873.94 214.795 873.94 211.935V143.79C873.94 140.93 874.875 138.565 876.745 136.695C878.615 134.715 880.98 133.725 883.84 133.725C886.7 133.725 889.065 134.715 890.935 136.695C892.805 138.565 893.74 140.93 893.74 143.79V150.885L891.265 150.39C892.255 148.52 893.685 146.54 895.555 144.45C897.425 142.25 899.625 140.215 902.155 138.345C904.685 136.475 907.545 134.99 910.735 133.89C913.925 132.68 917.39 132.075 921.13 132.075Z" fill="#F1F5F9"/>
<defs>
<filter id="filter0_d_9_38" x="291.5" y="17.5" width="293" height="293" filterUnits="userSpaceOnUse" color-interpolation-filters="sRGB">
<feFlood flood-opacity="0" result="BackgroundImageFix"/>
<feColorMatrix in="SourceAlpha" type="matrix" values="0 0 0 0 0 0 0 0 0 0 0 0 0 0 0 0 0 0 127 0" result="hardAlpha"/>
<feOffset dy="4"/>
<feGaussianBlur stdDeviation="13.25"/>
<feComposite in2="hardAlpha" operator="out"/>
<feColorMatrix type="matrix" values="0 0 0 0 0 0 0 0 0 0 0 0 0 0 0 0 0 0 0.05 0"/>
<feBlend mode="normal" in2="BackgroundImageFix" result="effect1_dropShadow_9_38"/>
<feBlend mode="normal" in="BackgroundImageFix" in2="effect1_dropShadow_9_38" result="BackgroundImageFix"/>
<feBlend mode="normal" in="SourceGraphic" in2="BackgroundImageFix" result="shape"/>
</filter>
</defs>
</svg>
