<svg viewBox="0 0 512 512" fill="none" xmlns="http://www.w3.org/2000/svg" width="100%" height="100%">
<g clip-path="url(#clip0_5_99)">
<rect width="512" height="512" rx="115" fill="#1A1F26"/>
<path fill-rule="evenodd" clip-rule="evenodd" d="M212.325 71.2991C208.601 71.5223 204.651 71.9252 203.548 72.1944C192.932 74.7861 185.553 77.591 178.484 81.722C172.879 84.9962 164.479 91.7189 160.675 95.9735C159.427 97.3692 158.068 98.8789 157.654 99.3288C154.874 102.353 151.479 107.627 148.495 113.559C145.827 118.861 144.497 122.527 143.03 128.617C142.014 132.837 141.938 134.774 141.607 164.852C141.225 199.53 141.166 200.243 138.183 206.603C136.313 210.591 131.886 215.325 128.209 217.27C126.611 218.115 122.483 219.517 119.034 220.385C115.586 221.254 112.313 222.15 111.762 222.378C111.21 222.605 108.761 223.532 106.319 224.438C98.4968 227.341 89.6622 234.009 83.4805 241.676C77.2445 249.41 74.5271 256.149 71.779 270.692C71.5187 272.068 71.1932 288.169 71.0553 306.472C70.794 341.128 71.4936 381.473 72.431 385.789C74.1258 393.594 75.1375 397.188 76.7209 401.026C79.2899 407.256 81.4627 410.917 85.5564 415.918C92.5623 424.474 101.455 431.251 111.063 435.353C116.542 437.694 124.408 439.964 129.236 440.596C132.051 440.964 156.887 441.076 208.814 440.95C291.351 440.751 284.327 441.004 293.778 437.861C303.479 434.634 311.302 429.88 318.141 423.057C323.4 417.81 327.507 411.82 330.502 405.029C333.069 399.212 334.425 394.497 335.247 388.541C335.918 383.679 336.626 347.785 336.14 343.253C335.638 338.569 335.685 305.945 336.204 298.868C336.461 295.375 337.037 291.096 337.484 289.36C339.388 281.985 344.257 274.196 350.372 268.747C353.994 265.52 360.368 262.128 365.061 260.931C369.515 259.794 370.797 259.723 373.478 260.466C375.766 261.1 377.072 262.992 377.87 266.829C378.588 270.277 377.758 279.737 376.281 284.954C373.628 294.324 367.002 303.683 360.216 307.645C358.751 308.501 356.066 309.348 352.969 309.934C349.195 310.646 347.838 311.122 347.145 311.975C346.325 312.986 346.242 314.338 346.242 326.733C346.242 342.342 346.098 341.83 350.429 341.642C358.785 341.279 370.226 336.776 378.423 330.623C384.011 326.43 388.545 321.914 392.902 316.203C397.539 310.124 400.894 304.116 402.979 298.154C405.704 290.362 406.457 285.676 406.75 274.695C407.066 262.838 407.371 261.745 410.584 260.921C420.058 258.492 424.436 256.361 428.874 252.019C431.313 249.633 432.575 247.854 434.024 244.763C436.535 239.406 437.789 234.325 439.007 224.602C440.777 210.44 441.587 168.187 440.524 145.264C439.99 133.688 438.927 127.301 436.228 119.46C430.544 102.94 416.999 87.6144 400.947 79.5401C395.039 76.5686 384.177 73.2488 375.333 71.711C373.023 71.3097 349.766 71.108 295.584 71.0189C253.516 70.9499 216.049 71.076 212.325 71.2991ZM320.662 107.709C321.904 108.015 326.579 108.625 331.052 109.062C340.661 110.003 351.242 112.099 357.527 114.307C368.539 118.177 379.728 125.893 386.383 134.206C392.071 141.312 395.47 147.379 398.396 155.649C401.437 164.246 401.477 164.843 401.975 209.39C402.225 231.821 402.298 251.573 402.135 253.282C401.944 255.301 401.481 256.845 400.816 257.689L399.792 258.987L389.582 258.835C379.727 258.687 379.331 258.642 378.23 257.542L377.088 256.402L376.786 215.506C376.588 188.68 376.298 173.922 375.942 172.609C375.643 171.508 375.152 169.628 374.851 168.431C374.219 165.924 371.176 159.028 369.408 156.095C367.751 153.348 361.626 147.181 358.265 144.878C355.479 142.968 350.23 140.347 346.493 138.998C340.615 136.877 339.477 136.828 296.179 136.833C272.513 136.835 252.259 137.053 249.005 137.34C245.463 137.653 241.893 138.317 239.577 139.092C235.983 140.296 230.876 142.83 227.512 145.079C224.583 147.037 220.297 151.042 217.812 154.144C214.81 157.892 210.7 166.233 209.209 171.608C208.115 175.548 208.094 176.253 207.829 216.253C207.577 254.39 207.505 256.95 206.665 257.788C205.857 258.594 204.636 258.681 194.207 258.681C182.8 258.681 182.632 258.666 181.724 257.548C181.176 256.872 180.672 255.157 180.475 253.295C180.294 251.578 180.243 231.709 180.362 209.14C180.511 181.032 180.767 166.865 181.176 164.17C182.435 155.854 187.638 143.948 193.015 137.073C199.925 128.238 207.905 121.833 218.23 116.836C224.648 113.729 233.059 111.147 240.914 109.872C245.72 109.093 260.728 107.345 264.487 107.128C266.281 107.024 279.146 106.987 293.076 107.045C309.653 107.114 319.185 107.344 320.662 107.709ZM174.851 261.073C177.877 262.388 178.286 263.98 178.737 276.196C179.143 287.175 179.746 290.926 182.52 299.716C184.438 305.796 188.475 313.536 191.983 317.864C195.888 322.681 201.142 327.647 205.912 331.031C211.263 334.826 219.66 338.704 226.62 340.595L232.638 342.229L263.636 342.39C292.284 342.54 294.755 342.619 296.237 343.445L297.841 344.339L297.975 357.675C298.049 365.01 297.899 372.196 297.642 373.645C296.388 380.719 293.624 386.999 289.714 391.656C286.953 394.945 282.679 398.369 278.303 400.798C276.635 401.724 273.352 403.004 271.008 403.643L266.745 404.805H206.306H145.868L141.7 403.616C136.614 402.165 130.134 398.927 126.068 395.806C124.401 394.526 121.805 391.938 120.299 390.056C115.245 383.735 112.828 377.565 111.98 368.823C111.634 365.243 111.51 351.003 111.633 328.74C111.817 295.229 111.855 294.09 112.912 290.09C113.967 286.091 117.145 279.081 118.916 276.842C121.367 273.743 126.557 268.706 128.894 267.158C132.123 265.02 137.511 262.691 141.722 261.614C146.761 260.325 151.204 260.007 162.419 260.131C170.916 260.225 173.319 260.407 174.851 261.073ZM265.491 260.929C275.85 262.114 283.497 265.399 289.363 271.185C292.728 274.503 294.038 276.607 297.15 283.702C298.045 285.744 298.574 291.955 298.584 300.536C298.596 311.172 298.552 311.273 293.578 311.988C289.042 312.64 258.191 312.595 250.781 311.925C247.423 311.621 242.605 310.839 240.074 310.185C230.756 307.778 221.332 300.979 217.066 293.582C216.313 292.277 215.403 290.869 215.044 290.452C214.686 290.036 213.655 287.559 212.756 284.947C211.209 280.46 211.109 279.732 210.923 271.687C210.736 263.605 210.777 263.129 211.756 262.246C212.322 261.734 213.528 261.14 214.436 260.925C216.855 260.354 260.491 260.357 265.491 260.929ZM344.737 342.198C344.737 342.306 345.076 342.524 345.49 342.683C345.903 342.841 346.242 342.753 346.242 342.487C346.242 342.22 345.903 342.002 345.49 342.002C345.076 342.002 344.737 342.09 344.737 342.198Z" fill="#1CA2E4"/>
</g>
<defs>
<clipPath id="clip0_5_99">
<rect width="512" height="512" fill="white"/>
</clipPath>
</defs>
</svg>
