<svg viewBox="0 0 793 793" fill="none" xmlns="http://www.w3.org/2000/svg" width="100%" height="100%">
<path fill-rule="evenodd" clip-rule="evenodd" d="M309.15 23.0983C301.702 23.5447 293.802 24.3503 291.595 24.8888C270.364 30.0721 255.607 35.6819 241.467 43.9439C230.259 50.4924 213.458 63.9378 205.851 72.4469C203.355 75.2383 200.637 78.2579 199.809 79.1576C194.248 85.2067 187.459 95.7536 181.489 107.617C176.155 118.222 173.493 125.555 170.56 137.735C168.528 146.174 168.375 150.048 167.713 210.204C166.95 279.561 166.832 280.986 160.866 293.707C157.126 301.681 148.272 311.15 140.918 315.04C137.722 316.73 129.465 319.533 122.569 321.27C115.672 323.008 109.127 324.8 108.023 325.255C106.92 325.71 102.021 327.564 97.1383 329.376C81.4936 335.182 63.8245 348.518 51.4609 363.852C38.9891 379.32 33.5542 392.798 28.058 421.883C27.5374 424.635 26.8864 456.837 26.6105 493.444C26.0879 562.757 27.4873 643.446 29.3621 652.077C32.7517 667.687 34.775 674.875 37.9419 682.552C43.0798 695.011 47.4254 702.334 55.6129 712.335C69.6245 729.448 87.411 743.001 106.626 751.206C117.584 755.889 133.316 760.427 142.972 761.692C148.603 762.429 198.275 762.653 302.128 762.4C467.201 762.003 453.154 762.508 472.056 756.221C491.459 749.768 507.104 740.259 520.782 726.613C531.299 716.12 539.514 704.139 545.504 690.559C550.637 678.924 553.35 669.493 554.994 657.581C556.336 647.857 557.751 576.07 556.78 567.005C555.776 557.637 555.87 492.389 556.909 478.237C557.421 471.249 558.574 462.692 559.469 459.221C563.275 444.469 573.014 428.891 585.245 417.995C592.489 411.539 605.236 404.756 614.622 402.361C623.531 400.089 626.093 399.946 631.456 401.433C636.031 402.699 638.644 406.484 640.239 414.159C641.675 421.054 640.017 439.975 637.062 450.407C631.757 469.147 618.504 487.865 604.932 495.79C602.003 497.501 596.633 499.196 590.437 500.367C582.89 501.792 580.175 502.744 578.79 504.45C577.15 506.472 576.984 509.177 576.984 533.965C576.984 565.184 576.696 564.159 585.358 563.783C602.07 563.058 624.951 554.051 641.347 541.747C652.523 533.36 661.591 524.329 670.305 512.905C679.579 500.747 686.288 488.733 690.458 476.808C695.908 461.224 697.415 451.851 698.001 429.889C698.632 406.177 699.241 403.989 705.668 402.342C724.615 397.483 733.373 393.222 742.249 384.538C747.126 379.767 749.651 376.209 752.548 370.025C757.571 359.312 760.078 349.15 762.514 329.703C766.055 301.38 767.674 216.875 765.549 171.027C764.479 147.877 762.355 135.102 756.957 119.42C745.588 86.3797 718.499 55.7288 686.393 39.5802C674.577 33.6372 652.854 26.9976 635.165 23.922C630.547 23.1193 584.032 22.716 475.669 22.5378C391.532 22.3997 316.598 22.6519 309.15 23.0983ZM525.825 95.9177C528.308 96.5305 537.658 97.7496 546.605 98.6247C565.821 100.506 586.984 104.698 599.555 109.115C621.578 116.854 643.956 132.285 657.265 148.912C668.643 163.123 675.44 175.257 681.292 191.798C687.374 208.992 687.453 210.186 688.449 299.279C688.951 344.143 689.095 383.646 688.771 387.065C688.387 391.103 687.463 394.19 686.132 395.878L684.084 398.475L663.663 398.169C643.954 397.874 643.162 397.783 640.96 395.583L638.677 393.305L638.073 311.512C637.677 257.86 637.096 228.343 636.383 225.717C635.786 223.515 634.804 219.755 634.201 217.362C632.939 212.348 626.853 198.557 623.316 192.689C620.003 187.195 607.752 174.862 601.03 170.255C595.459 166.436 584.96 161.193 577.486 158.497C565.73 154.255 563.453 154.157 476.858 154.166C429.527 154.17 389.018 154.606 382.51 155.181C375.425 155.806 368.285 157.133 363.654 158.685C356.466 161.092 346.251 166.16 339.524 170.657C333.666 174.573 325.095 182.584 320.124 188.788C314.119 196.285 305.901 212.966 302.919 223.715C300.73 231.597 300.688 233.006 300.158 313.006C299.654 389.28 299.51 394.4 297.83 396.076C296.214 397.687 293.773 397.863 272.914 397.863C250.1 397.863 249.765 397.832 247.949 395.596C246.851 394.244 245.844 390.815 245.451 387.089C245.088 383.657 244.987 343.917 245.224 298.779C245.523 242.564 246.034 214.23 246.851 208.84C249.37 192.209 259.776 168.396 270.53 154.647C284.351 136.975 300.31 124.166 320.96 114.171C333.796 107.958 350.618 102.794 366.328 100.244C375.94 98.6854 405.957 95.1899 413.475 94.7558C417.061 94.5486 442.791 94.4735 470.653 94.5906C503.807 94.7287 522.871 95.187 525.825 95.9177ZM234.202 402.645C240.254 405.276 241.073 408.461 241.975 432.892C242.785 454.849 243.991 462.353 249.539 479.932C253.376 492.092 261.449 507.573 268.466 516.228C276.276 525.863 286.784 535.795 296.325 542.562C307.026 550.151 323.819 557.907 337.739 561.689L349.776 564.958L411.771 565.281C469.067 565.579 474.01 565.738 476.975 567.391L480.182 569.178L480.45 595.85C480.597 610.519 480.297 624.892 479.784 627.791C477.277 641.937 471.748 654.498 463.928 663.813C458.407 670.39 449.859 677.238 441.106 682.096C437.77 683.948 431.205 686.508 426.516 687.786L417.989 690.109H297.112H176.236L167.901 687.732C157.728 684.83 144.767 678.355 136.636 672.113C133.301 669.552 128.109 664.377 125.098 660.612C114.99 647.971 110.155 635.63 108.46 618.147C107.767 610.985 107.519 582.507 107.765 537.981C108.134 470.958 108.21 468.68 110.323 460.68C112.435 452.683 118.79 438.662 122.331 434.184C127.234 427.985 137.615 417.911 142.288 414.816C148.745 410.54 159.523 405.882 167.944 403.728C178.021 401.15 186.908 400.514 209.339 400.761C226.333 400.949 231.139 401.313 234.202 402.645ZM415.481 402.358C436.2 404.729 451.494 411.298 463.227 422.87C469.957 429.505 472.575 433.714 478.799 447.905C480.59 451.988 481.648 464.411 481.668 481.572C481.691 502.844 481.603 503.046 471.656 504.476C462.584 505.779 400.883 505.69 386.061 504.351C379.346 503.743 369.71 502.178 364.649 500.87C346.011 496.057 327.164 482.457 318.631 467.664C317.126 465.053 315.306 462.237 314.589 461.404C313.871 460.573 311.811 455.618 310.011 450.395C306.918 441.42 306.718 439.964 306.345 423.875C305.971 407.71 306.055 406.757 308.011 404.992C309.144 403.968 311.556 402.78 313.372 402.35C318.209 401.207 405.481 401.214 415.481 402.358ZM573.975 564.896C573.975 565.112 574.652 565.549 575.479 565.866C576.307 566.183 576.984 566.006 576.984 565.473C576.984 564.94 576.307 564.503 575.479 564.503C574.652 564.503 573.975 564.68 573.975 564.896Z" fill="#2EA7F2"/>
<defs>
<filter id="filter0_d_5_46" x="0" y="0" width="793" height="793" filterUnits="userSpaceOnUse" color-interpolation-filters="sRGB">
<feFlood flood-opacity="0" result="BackgroundImageFix"/>
<feColorMatrix in="SourceAlpha" type="matrix" values="0 0 0 0 0 0 0 0 0 0 0 0 0 0 0 0 0 0 127 0" result="hardAlpha"/>
<feOffset dy="4"/>
<feGaussianBlur stdDeviation="13.25"/>
<feComposite in2="hardAlpha" operator="out"/>
<feColorMatrix type="matrix" values="0 0 0 0 0 0 0 0 0 0 0 0 0 0 0 0 0 0 0.15 0"/>
<feBlend mode="normal" in2="BackgroundImageFix" result="effect1_dropShadow_5_46"/>
<feBlend mode="normal" in="BackgroundImageFix" in2="effect1_dropShadow_5_46" result="BackgroundImageFix"/>
<feBlend mode="normal" in="SourceGraphic" in2="BackgroundImageFix" result="shape"/>
</filter>
</defs>
</svg>
