<svg width="1280" height="320" viewBox="0 0 1280 320" fill="none" xmlns="http://www.w3.org/2000/svg">
<rect width="1280" height="320" fill="#20242B"/>
<g filter="url(#filter0_d_8_7)">
<path fill-rule="evenodd" clip-rule="evenodd" d="M412.67 40.194C410.255 40.3388 407.693 40.6001 406.977 40.7747C400.091 42.4558 395.305 44.2752 390.719 46.9548C387.084 49.0786 381.635 53.4393 379.168 56.199C378.358 57.1043 377.477 58.0836 377.208 58.3754C375.405 60.3373 373.203 63.7579 371.267 67.6057C369.537 71.0449 368.673 73.4231 367.722 77.3735C367.063 80.1105 367.014 81.3668 366.799 100.877C366.551 123.371 366.513 123.833 364.578 127.959C363.365 130.545 360.494 133.616 358.109 134.878C357.072 135.426 354.394 136.335 352.157 136.898C349.921 137.462 347.798 138.043 347.44 138.191C347.082 138.338 345.493 138.94 343.91 139.528C338.836 141.41 333.105 145.736 329.095 150.709C325.051 155.725 323.288 160.097 321.505 169.53C321.336 170.422 321.125 180.866 321.036 192.738C320.866 215.218 321.32 241.388 321.928 244.187C323.028 249.25 323.684 251.581 324.711 254.071C326.377 258.112 327.787 260.487 330.442 263.73C334.986 269.28 340.755 273.676 346.987 276.337C350.541 277.856 355.643 279.328 358.775 279.738C360.601 279.977 376.711 280.05 410.393 279.968C463.93 279.839 459.374 280.003 465.505 277.964C471.797 275.871 476.872 272.787 481.308 268.361C484.719 264.958 487.383 261.072 489.326 256.668C490.99 252.894 491.87 249.836 492.403 245.972C492.839 242.819 493.298 219.536 492.983 216.596C492.657 213.558 492.688 192.397 493.024 187.806C493.191 185.54 493.564 182.765 493.855 181.639C495.089 176.855 498.248 171.803 502.215 168.268C504.564 166.175 508.698 163.975 511.742 163.198C514.632 162.461 515.463 162.415 517.202 162.897C518.686 163.308 519.533 164.535 520.051 167.024C520.516 169.261 519.978 175.397 519.02 178.781C517.299 184.859 513.001 190.929 508.6 193.499C507.649 194.054 505.908 194.604 503.899 194.984C501.451 195.446 500.57 195.755 500.121 196.308C499.589 196.964 499.535 197.841 499.535 205.881C499.535 216.006 499.442 215.673 502.251 215.551C507.671 215.316 515.092 212.395 520.41 208.404C524.034 205.684 526.975 202.755 529.802 199.05C532.809 195.107 534.985 191.211 536.338 187.343C538.105 182.289 538.594 179.249 538.784 172.126C538.989 164.436 539.186 163.726 541.271 163.192C547.416 161.616 550.256 160.234 553.135 157.418C554.717 155.87 555.535 154.716 556.475 152.711C558.104 149.236 558.917 145.94 559.707 139.633C560.856 130.448 561.381 103.04 560.692 88.1709C560.345 80.6627 559.656 76.5194 557.905 71.4335C554.218 60.7178 545.432 50.7769 535.019 45.5395C531.187 43.6121 524.142 41.4587 518.405 40.4612C516.907 40.2009 501.821 40.07 466.676 40.0123C439.389 39.9675 415.086 40.0493 412.67 40.194ZM482.943 63.8111C483.749 64.0099 486.781 64.4053 489.683 64.6891C495.915 65.2992 502.779 66.6588 506.856 68.0913C513.998 70.6012 521.256 75.6061 525.572 80.9983C529.262 85.6076 531.467 89.543 533.365 94.9076C535.337 100.484 535.363 100.871 535.686 129.766C535.849 144.317 535.896 157.128 535.791 158.237C535.666 159.547 535.366 160.548 534.935 161.095L534.27 161.938L527.648 161.839C521.255 161.743 520.999 161.713 520.284 161L519.544 160.261L519.348 133.734C519.219 116.333 519.031 106.76 518.8 105.908C518.606 105.194 518.288 103.975 518.092 103.199C517.683 101.572 515.709 97.0995 514.562 95.1966C513.487 93.4146 509.514 89.4148 507.334 87.9206C505.527 86.682 502.122 84.9816 499.698 84.1071C495.885 82.7313 495.147 82.6994 467.062 82.7025C451.711 82.7037 438.573 82.8452 436.463 83.0316C434.165 83.2345 431.849 83.6648 430.347 84.168C428.016 84.9487 424.703 86.5924 422.521 88.0509C420.621 89.321 417.842 91.9191 416.23 93.9312C414.282 96.3626 411.617 101.773 410.649 105.259C409.94 107.815 409.926 108.272 409.754 134.218C409.59 158.956 409.544 160.616 408.999 161.16C408.475 161.682 407.683 161.739 400.918 161.739C393.519 161.739 393.41 161.729 392.821 161.004C392.465 160.566 392.138 159.453 392.011 158.245C391.894 157.132 391.861 144.243 391.938 129.604C392.034 111.372 392.2 102.183 392.465 100.435C393.282 95.0407 396.657 87.3176 400.145 82.8584C404.627 77.1272 409.803 72.9726 416.5 69.7312C420.663 67.7161 426.119 66.0412 431.215 65.2143C434.332 64.7088 444.067 63.5751 446.505 63.4343C447.668 63.3671 456.013 63.3428 465.05 63.3808C475.802 63.4255 481.985 63.5742 482.943 63.8111ZM388.363 163.29C390.326 164.143 390.591 165.176 390.884 173.1C391.147 180.221 391.538 182.655 393.337 188.356C394.581 192.3 397.2 197.321 399.475 200.128C402.009 203.253 405.417 206.474 408.511 208.669C411.981 211.13 417.428 213.646 421.942 214.872L425.846 215.932L445.953 216.037C464.535 216.134 466.138 216.185 467.1 216.721L468.14 217.301L468.227 225.951C468.275 230.709 468.178 235.37 468.011 236.31C467.198 240.899 465.405 244.972 462.868 247.993C461.078 250.126 458.306 252.348 455.467 253.923C454.385 254.524 452.256 255.354 450.735 255.769L447.969 256.522H408.766H369.563L366.86 255.751C363.561 254.81 359.357 252.71 356.72 250.685C355.638 249.855 353.954 248.176 352.978 246.955C349.699 242.855 348.131 238.853 347.582 233.183C347.357 230.86 347.277 221.624 347.356 207.183C347.476 185.446 347.5 184.707 348.186 182.113C348.871 179.519 350.932 174.971 352.08 173.519C353.671 171.509 357.037 168.242 358.553 167.238C360.647 165.851 364.143 164.34 366.874 163.641C370.142 162.805 373.024 162.599 380.299 162.679C385.811 162.74 387.369 162.858 388.363 163.29ZM447.156 163.197C453.876 163.966 458.836 166.097 462.641 169.85C464.824 172.002 465.673 173.367 467.692 177.969C468.272 179.293 468.616 183.322 468.622 188.888C468.63 195.787 468.601 195.853 465.375 196.316C462.433 196.739 442.421 196.71 437.614 196.276C435.436 196.079 432.311 195.571 430.67 195.147C424.625 193.586 418.513 189.175 415.745 184.378C415.257 183.531 414.667 182.617 414.434 182.347C414.201 182.078 413.533 180.471 412.95 178.777C411.946 175.866 411.881 175.394 411.761 170.176C411.639 164.933 411.666 164.624 412.301 164.051C412.668 163.719 413.451 163.334 414.039 163.195C415.608 162.824 443.913 162.826 447.156 163.197ZM498.559 215.912C498.559 215.982 498.779 216.124 499.047 216.227C499.316 216.33 499.535 216.272 499.535 216.099C499.535 215.926 499.316 215.785 499.047 215.785C498.779 215.785 498.559 215.842 498.559 215.912Z" fill="#2EA7F2"/>
</g>
<path d="M602.945 106.335C604.265 106.335 605.64 106.665 607.07 107.325C608.5 107.985 609.6 108.92 610.37 110.13L652.28 173.985L645.185 173.655L687.92 110.13C689.68 107.6 691.935 106.335 694.685 106.335C696.885 106.335 698.81 107.16 700.46 108.81C702.22 110.35 703.1 112.33 703.1 114.75V213.585C703.1 216.005 702.33 218.04 700.79 219.69C699.25 221.23 697.215 222 694.685 222C692.045 222 689.9 221.23 688.25 219.69C686.71 218.04 685.94 216.005 685.94 213.585V129.93L691.22 131.085L654.92 186.36C654.15 187.35 653.16 188.23 651.95 189C650.74 189.66 649.475 189.935 648.155 189.825C646.945 189.935 645.68 189.66 644.36 189C643.15 188.23 642.16 187.35 641.39 186.36L606.41 131.91L610.37 125.31V213.585C610.37 216.005 609.6 218.04 608.06 219.69C606.63 221.23 604.705 222 602.285 222C599.975 222 598.05 221.23 596.51 219.69C595.08 218.04 594.365 216.005 594.365 213.585V114.75C594.365 112.44 595.19 110.46 596.84 108.81C598.6 107.16 600.635 106.335 602.945 106.335ZM743.734 213.585C743.734 216.005 742.964 218.04 741.424 219.69C739.884 221.23 737.904 222 735.484 222C733.174 222 731.194 221.23 729.544 219.69C728.004 218.04 727.234 216.005 727.234 213.585V142.965C727.234 140.545 728.004 138.565 729.544 137.025C731.194 135.375 733.174 134.55 735.484 134.55C737.904 134.55 739.884 135.375 741.424 137.025C742.964 138.565 743.734 140.545 743.734 142.965V213.585ZM735.319 123.66C732.129 123.66 729.819 123.11 728.389 122.01C726.959 120.8 726.244 118.82 726.244 116.07V113.43C726.244 110.68 727.014 108.755 728.554 107.655C730.094 106.555 732.404 106.005 735.484 106.005C738.784 106.005 741.149 106.61 742.579 107.82C744.009 108.92 744.724 110.79 744.724 113.43V116.07C744.724 118.93 743.954 120.91 742.414 122.01C740.984 123.11 738.619 123.66 735.319 123.66ZM774.179 222C771.759 222 769.779 221.23 768.239 219.69C766.699 218.04 765.929 216.005 765.929 213.585V143.625C765.929 141.205 766.699 139.225 768.239 137.685C769.779 136.035 771.759 135.21 774.179 135.21C776.489 135.21 778.414 136.035 779.954 137.685C781.604 139.225 782.429 141.205 782.429 143.625V162.105L780.779 155.01C781.659 151.93 782.979 149.07 784.739 146.43C786.609 143.79 788.809 141.48 791.339 139.5C793.869 137.52 796.674 135.98 799.754 134.88C802.944 133.78 806.244 133.23 809.654 133.23C812.514 133.23 814.989 134 817.079 135.54C819.169 137.08 820.214 139.005 820.214 141.315C820.214 144.285 819.444 146.485 817.904 147.915C816.364 149.235 814.659 149.895 812.789 149.895C811.139 149.895 809.544 149.565 808.004 148.905C806.464 148.135 804.649 147.75 802.559 147.75C800.249 147.75 797.884 148.355 795.464 149.565C793.044 150.775 790.844 152.59 788.864 155.01C786.884 157.32 785.289 160.07 784.079 163.26C782.979 166.45 782.429 170.025 782.429 173.985V213.585C782.429 216.005 781.604 218.04 779.954 219.69C778.414 221.23 776.489 222 774.179 222ZM850.404 213.585C850.404 216.005 849.634 218.04 848.094 219.69C846.554 221.23 844.574 222 842.154 222C839.844 222 837.864 221.23 836.214 219.69C834.674 218.04 833.904 216.005 833.904 213.585V142.965C833.904 140.545 834.674 138.565 836.214 137.025C837.864 135.375 839.844 134.55 842.154 134.55C844.574 134.55 846.554 135.375 848.094 137.025C849.634 138.565 850.404 140.545 850.404 142.965V213.585ZM841.989 123.66C838.799 123.66 836.489 123.11 835.059 122.01C833.629 120.8 832.914 118.82 832.914 116.07V113.43C832.914 110.68 833.684 108.755 835.224 107.655C836.764 106.555 839.074 106.005 842.154 106.005C845.454 106.005 847.819 106.61 849.249 107.82C850.679 108.92 851.394 110.79 851.394 113.43V116.07C851.394 118.93 850.624 120.91 849.084 122.01C847.654 123.11 845.289 123.66 841.989 123.66ZM917.314 133.23C925.124 133.23 931.174 134.88 935.464 138.18C939.754 141.37 942.724 145.715 944.374 151.215C946.134 156.605 947.014 162.655 947.014 169.365V213.585C947.014 216.005 946.189 218.04 944.539 219.69C942.999 221.23 941.074 222 938.764 222C936.344 222 934.364 221.23 932.824 219.69C931.284 218.04 930.514 216.005 930.514 213.585V169.53C930.514 165.57 929.964 162.05 928.864 158.97C927.764 155.78 925.839 153.25 923.089 151.38C920.449 149.4 916.709 148.41 911.869 148.41C907.359 148.41 903.399 149.4 899.989 151.38C896.579 153.25 893.884 155.78 891.904 158.97C890.034 162.05 889.099 165.57 889.099 169.53V213.585C889.099 216.005 888.274 218.04 886.624 219.69C885.084 221.23 883.159 222 880.849 222C878.429 222 876.449 221.23 874.909 219.69C873.369 218.04 872.599 216.005 872.599 213.585V143.625C872.599 141.205 873.369 139.225 874.909 137.685C876.449 136.035 878.429 135.21 880.849 135.21C883.159 135.21 885.084 136.035 886.624 137.685C888.274 139.225 889.099 141.205 889.099 143.625V152.865L886.129 154.515C886.899 152.095 888.219 149.675 890.089 147.255C892.069 144.725 894.434 142.415 897.184 140.325C899.934 138.125 903.014 136.42 906.424 135.21C909.834 133.89 913.464 133.23 917.314 133.23Z" fill="#F2F3F5"/>
<defs>
<filter id="filter0_d_8_7" x="294.5" y="17.5" width="293" height="293" filterUnits="userSpaceOnUse" color-interpolation-filters="sRGB">
<feFlood flood-opacity="0" result="BackgroundImageFix"/>
<feColorMatrix in="SourceAlpha" type="matrix" values="0 0 0 0 0 0 0 0 0 0 0 0 0 0 0 0 0 0 127 0" result="hardAlpha"/>
<feOffset dy="4"/>
<feGaussianBlur stdDeviation="13.25"/>
<feComposite in2="hardAlpha" operator="out"/>
<feColorMatrix type="matrix" values="0 0 0 0 0 0 0 0 0 0 0 0 0 0 0 0 0 0 0.15 0"/>
<feBlend mode="normal" in2="BackgroundImageFix" result="effect1_dropShadow_8_7"/>
<feBlend mode="normal" in="BackgroundImageFix" in2="effect1_dropShadow_8_7" result="BackgroundImageFix"/>
<feBlend mode="normal" in="SourceGraphic" in2="BackgroundImageFix" result="shape"/>
</filter>
</defs>
</svg>
